<svg width="91" height="97" viewBox="0 0 91 97" fill="none" xmlns="http://www.w3.org/2000/svg">
<path fill-rule="evenodd" clip-rule="evenodd" d="M22.782 0.433877C22.3631 0.772751 22.3361 0.926529 22.2787 3.2979C22.2222 5.6267 22.2464 5.84011 22.6204 6.31551C23.1213 6.95219 24.1175 7.01801 24.6834 6.45204C25.0227 6.11279 25.0585 5.82699 25.0585 3.46518C25.0585 0.866893 25.0559 0.85114 24.5644 0.464632C23.9485 -0.0199561 23.3557 -0.0300829 22.782 0.433877ZM11.6414 3.53682C11.3882 3.78999 11.181 4.178 11.181 4.39929C11.181 4.83868 13.133 8.40408 13.6645 8.93555C13.8507 9.12177 14.2736 9.26505 14.6367 9.26505C15.4509 9.26505 16.1373 8.49503 15.988 7.74902C15.8483 7.05065 13.8443 3.68684 13.3701 3.35453C12.7893 2.94796 12.1642 3.01378 11.6414 3.53682ZM33.9022 3.40461C33.262 3.94752 31.4347 7.30794 31.4347 7.94237C31.4347 8.71295 32.0177 9.26505 32.8316 9.26505C33.3443 9.26505 33.5714 9.13865 33.927 8.65556C34.8474 7.40527 36.123 4.95101 36.123 4.43061C36.123 3.32959 34.7426 2.69198 33.9022 3.40461ZM21.8385 9.09439C16.976 9.73839 12.8395 12.6716 10.6231 17.0477C9.53142 19.2029 9.08528 21.0994 9.07909 23.6114C9.06821 27.9845 10.5811 31.4466 13.8158 34.452L15.3067 35.837V37.7018C15.3067 40.9938 16.2105 43.0953 18.1856 44.3958C19.7721 45.4408 20.3188 45.5537 23.7458 45.5454C26.502 45.5389 26.9558 45.4922 27.8991 45.1173C29.389 44.5252 30.5482 43.4377 31.2871 41.9384C31.8748 40.746 31.9063 40.5724 31.9646 38.2141L32.0258 35.7404L33.1607 34.8487C34.5192 33.7814 36.1787 31.6013 37.0054 29.7984C39.0304 25.3814 38.7628 20.3388 36.2794 16.1162C35.094 14.1008 32.6756 11.8161 30.5626 10.7156C27.8348 9.29487 24.7099 8.71426 21.8385 9.09439ZM3.5774 11.6008C3.05436 12.1236 2.98854 12.7487 3.39511 13.3295C3.72742 13.8038 7.09123 15.8077 7.7896 15.9475C8.53561 16.0967 9.30563 15.4104 9.30563 14.5961C9.30563 14.233 9.16235 13.8101 8.97613 13.6239C8.44466 13.0924 4.87926 11.1404 4.43987 11.1404C4.21858 11.1404 3.83057 11.3476 3.5774 11.6008ZM42.0303 11.4343C40.4041 12.2772 38.5216 13.4773 38.2765 13.8272C38.1234 14.0457 37.9984 14.4204 37.9984 14.66C37.9984 15.2069 38.7879 16.0163 39.3212 16.0163C39.7606 16.0163 43.326 14.0642 43.8575 13.5328C44.3706 13.0197 44.2864 11.9959 43.6928 11.5292C43.1029 11.065 42.7786 11.0464 42.0303 11.4343ZM85.6941 12.0863C84.5249 13.0977 82.1379 14.3472 80.7562 14.6711C79.0676 15.067 75.7803 15.3098 73.8174 15.1838C72.7344 15.1142 69.4854 14.8436 66.5973 14.5824C59.7737 13.9648 58.0212 14.0965 55.1255 15.4443C52.8901 16.4846 50.3771 18.7742 49.3007 20.7515C48.8408 21.596 48.7748 21.6423 48.0273 21.6423C44.7383 21.6423 41.7005 23.4873 40.3819 26.2855C39.8452 27.4245 39.7794 27.7587 39.716 29.6616C39.6008 33.1132 40.5537 37.3822 42.4039 41.7047L43.0458 43.205L41.9756 43.7226C40.6525 44.3623 39.3524 45.6279 38.7463 46.8657C38.3633 47.6479 38.2868 48.0833 38.2851 49.4911C38.2834 50.9702 38.3466 51.2999 38.7971 52.1573C39.692 53.8605 41.4062 55.2265 43.2298 55.6895L44.0807 55.9056L44.5647 57.5907C46.1732 63.1905 50.0274 67.8597 55.1264 70.3856L56.7518 71.1909V72.8339V74.4771L52.2978 74.5766C48.836 74.6539 47.6142 74.7477 46.8125 74.9973C45.4401 75.4247 44.4477 75.937 43.4924 76.7117L42.7038 77.351L42.6485 70.3599C42.5931 63.3929 42.5915 63.3662 42.1521 62.6596C41.9096 62.2695 41.361 61.7632 40.9331 61.5344C40.1981 61.1413 39.93 61.1183 36.0872 61.1183H32.0192L31.9615 57.4913C31.9046 53.9387 31.8945 53.8569 31.4607 53.5062C30.8859 53.0412 30.033 53.0494 29.5578 53.5246C29.188 53.8944 29.1822 54.1035 29.2296 65.3822L29.278 76.8634L29.8802 77.2423C30.467 77.6115 30.4827 77.6563 30.4897 78.9867C30.4959 80.1218 30.4417 80.3718 30.1688 80.4686C29.9882 80.5327 29.693 80.7118 29.5124 80.8669C29.2107 81.1261 29.1843 81.7185 29.1843 88.2323V95.3161L29.6784 95.7046L30.1726 96.0934H58.8983C87.3461 96.0934 87.6282 96.0898 88.0259 95.7191C88.247 95.5131 88.4813 95.0595 88.5467 94.7111C88.6122 94.3624 88.6304 91.4718 88.5874 88.2873C88.5008 81.8749 88.4436 81.5057 87.2105 79.4017C86.2609 77.7814 84.8797 76.5122 83.1146 75.6381C81.2771 74.728 79.8466 74.5352 74.8957 74.5303L71.567 74.5269V72.8755V71.2243L73.3017 70.3427C75.6622 69.1432 77.328 67.8768 79.2203 65.8437C80.0972 64.9016 80.2091 64.6921 80.1579 64.0899C80.0857 63.2395 79.3442 62.6024 78.6344 62.7806C78.3779 62.8449 77.4863 63.5736 76.6533 64.3999C72.9127 68.1107 68.4616 69.8478 63.3354 69.5976C56.977 69.2872 51.3435 65.5724 48.4311 59.7693C47.153 57.223 46.5606 53.4417 46.663 48.4856L46.7187 45.792L47.9139 45.3596C50.3983 44.4605 52.2549 42.6908 53.5802 39.9588C53.972 39.1512 54.3198 38.4088 54.353 38.3088C54.3864 38.2089 54.8764 38.3317 55.442 38.5815C56.8797 39.2169 59.9237 40.1761 61.8152 40.5898C64.2622 41.1252 66.4666 41.3471 69.2808 41.3417C73.3328 41.3338 76.8673 40.639 80.2404 39.1873L81.6938 38.5616V46.0178C81.6938 54.3663 81.5913 55.4215 80.4825 58.4845C79.8084 60.3473 79.8014 60.8407 80.4424 61.3725C80.8844 61.7396 81.8589 61.694 82.2568 61.2878C82.6865 60.8491 83.629 58.4911 83.9478 57.0572L84.1835 55.9969L85.398 55.5982C88.4254 54.6044 90.1745 52.3679 90.1745 49.4911C90.1745 48.4226 90.0701 47.8873 89.7064 47.0931C88.8698 45.2656 87.2688 43.8612 85.3909 43.307L84.6006 43.0739L84.5492 39.9436L84.4977 36.8133L85.7907 35.557C87.9669 33.4429 89.3308 31.0284 90.261 27.6434C90.5295 26.6662 90.5946 25.718 90.5891 22.8613C90.5818 18.9362 90.3047 17.1385 89.1802 13.7192C88.2493 10.8882 87.4901 10.5326 85.6941 12.0863ZM26.6345 12.2609C34.149 14.1829 37.7214 22.6452 33.9174 29.5133C33.5461 30.1837 32.6345 31.3376 31.8802 32.0919L30.5152 33.457H29.3808H28.2466V29.4529C28.2466 25.3167 28.1194 24.4137 27.4891 24.0763C26.841 23.7296 26.0472 23.8625 25.6348 24.3869C25.2672 24.854 25.246 25.1149 25.246 29.169V33.457H23.652H22.058V29.0854C22.058 24.945 22.0377 24.6918 21.6756 24.3032C21.1747 23.7654 20.2499 23.7641 19.6789 24.3004C19.2493 24.7042 19.2449 24.7526 19.2449 29.0825V33.457H18.1499C17.1138 33.457 16.9996 33.4091 16.0218 32.5662C14.1155 30.9228 12.914 28.9882 12.294 26.564C10.6714 20.2202 14.5641 13.7364 20.9328 12.1746C22.4932 11.7921 24.9462 11.8292 26.6345 12.2609ZM0.925663 22.3938C0.0841975 22.7328 -0.114026 23.7367 0.505212 24.5238C0.89172 25.0153 0.907473 25.0179 3.50576 25.0179C5.86757 25.0179 6.15337 24.9821 6.49262 24.6429C7.05109 24.0844 6.99277 23.0807 6.37353 22.5937C5.9332 22.2471 5.63258 22.2062 3.6074 22.2167C2.35786 22.2233 1.15108 22.303 0.925663 22.3938ZM5.55495 32.4435C4.57508 33.0108 3.62559 33.6492 3.44519 33.8618C2.7243 34.7114 3.37486 36.0824 4.49857 36.0824C5.0758 36.0824 8.47129 34.2118 8.97745 33.6149C9.41515 33.0988 9.39321 32.2318 8.93056 31.7692C8.31114 31.1497 7.51393 31.3089 5.55495 32.4435ZM43.8119 49.4099V52.7983L43.39 52.67C42.1637 52.2976 41.0072 50.7546 41.0072 49.4911C41.0072 48.7669 41.575 47.5397 42.1462 47.0292C42.5046 46.7089 43.5488 46.0639 43.765 46.0293C43.7907 46.0251 43.8119 47.5464 43.8119 49.4099ZM85.407 46.4739C87.5035 47.5691 87.9534 50.1092 86.346 51.7759C85.8275 52.3137 84.7446 52.9333 84.6415 52.7514C84.5556 52.5997 84.7163 46.2093 84.806 46.2093C84.8579 46.2093 85.1283 46.3284 85.407 46.4739ZM56.9194 46.7951C56.6507 46.8928 56.3343 47.1847 56.2162 47.4436C55.939 48.052 55.9383 50.7409 56.2151 51.3483C56.6333 52.2665 58.1506 52.3507 58.6157 51.4816C58.7252 51.277 58.8147 50.312 58.8147 49.3368C58.8147 47.9175 58.7492 47.4877 58.4865 47.1841C58.069 46.7012 57.54 46.5699 56.9194 46.7951ZM70.348 46.8064C69.6324 47.2253 69.5161 47.576 69.5101 49.3351C69.503 51.3605 69.5654 51.573 70.2754 51.94C70.9275 52.2773 71.6581 52.1301 72.0401 51.5846C72.4664 50.9762 72.4281 47.6947 71.9889 47.1757C71.5754 46.6871 70.836 46.5206 70.348 46.8064ZM58.6104 57.8122C58.2961 58.0667 58.177 58.3578 58.177 58.8707C58.177 59.4618 58.2988 59.6829 58.9178 60.2162C60.5707 61.64 62.3879 62.2356 64.7079 62.1139C66.061 62.0428 66.4977 61.9293 67.6925 61.3388C69.9936 60.2018 70.8377 58.8249 69.8203 57.869C69.2003 57.2867 68.4138 57.3484 67.5678 58.0457C65.5492 59.7097 62.9845 59.7354 60.9012 58.1121C59.9584 57.3777 59.2601 57.2862 58.6104 57.8122ZM39.6862 67.8695V71.7139H35.8417H31.9973V67.8695V64.025H35.8417H39.6862V67.8695ZM62.4716 72.4665C64.0431 72.621 67.099 72.4637 68.2797 72.1674L68.754 72.0483V73.6273V75.2064L66.4949 76.4856C64.7904 77.4506 64.1539 77.724 63.9021 77.5991C63.7187 77.5082 62.6676 76.9281 61.5665 76.3102L59.5648 75.1869V73.6144V72.0421L60.1743 72.1713C60.5096 72.2424 61.5433 72.3752 62.4716 72.4665ZM59.7514 78.5859C60.7896 79.168 61.6742 79.7014 61.7173 79.7712C61.7603 79.8409 60.9175 80.7732 59.844 81.8427C58.4962 83.186 57.8611 83.7041 57.7907 83.5175C57.7348 83.3688 57.3202 81.9602 56.8694 80.3874L56.0498 77.5275H56.9569C57.7114 77.5275 58.1819 77.7057 59.7514 78.5859ZM72.2633 77.7724C72.2115 77.9073 71.8065 79.3029 71.3629 80.874L70.5567 83.7308L68.6238 81.8046C67.5609 80.7452 66.6911 79.8306 66.6911 79.7721C66.6911 79.7136 67.5138 79.1934 68.5196 78.6159C70.0825 77.7184 70.4939 77.5631 71.3526 77.5468C72.1078 77.5322 72.334 77.5883 72.2633 77.7724ZM61.3111 87.5548L62.3276 88.8619L61.3 90.1334C60.735 90.8329 60.2114 91.405 60.1366 91.405C60.0618 91.405 59.7197 90.3907 59.3761 89.1509L58.7518 86.8965L59.2897 86.3352C59.9115 85.686 59.8107 85.625 61.3111 87.5548ZM69.0467 86.3527L69.6388 86.9265L69.0124 89.0997C68.6679 90.2948 68.3506 91.3083 68.3073 91.3518C68.2638 91.3951 67.7465 90.8345 67.1581 90.106C66.4722 89.2574 66.1283 88.6755 66.2007 88.4868C66.3241 88.1654 68.2323 85.7856 68.3699 85.7814C68.4166 85.7801 68.7212 86.0372 69.0467 86.3527Z" fill="black"/>
</svg>
