<svg width="84" height="96" viewBox="0 0 84 96" fill="none" xmlns="http://www.w3.org/2000/svg">
<path fill-rule="evenodd" clip-rule="evenodd" d="M17.5845 0.562473C17.1643 0.871824 16.584 1.37885 16.2948 1.68899C15.5825 2.45345 14.4231 4.4128 14.2697 5.11202C14.2007 5.42529 14.0961 5.68155 14.0369 5.68155C13.9775 5.68155 13.3014 5.44625 12.534 5.15845C11.3738 4.72352 10.8021 4.63281 9.13863 4.61969C6.46693 4.59872 6.43186 4.63379 6.45223 7.30569C6.46712 9.26132 6.61465 9.88883 7.59697 12.1722C7.71412 12.4446 7.54603 12.5033 6.45106 12.5731C5.03087 12.6636 4.38611 13.0154 3.64516 14.104C3.26488 14.6627 3.20435 15.0056 3.20435 16.6032C3.20435 19.2716 3.88966 20.4209 5.65133 20.7067L6.33899 20.8184V29.3009C6.33899 38.4901 6.32842 38.3994 7.39126 38.3994C8.29991 38.3994 8.29815 38.4165 8.29815 29.3481V20.767H32.3958H56.4934L56.4932 24.5384L56.4928 28.3098L53.8973 28.3221C52.1599 28.3304 50.9292 28.4375 50.1751 28.6464L49.0486 28.9583V28.1411C49.0486 27.0434 48.4851 26.0523 47.5588 25.5211L46.7955 25.0836H32.3958H17.996L17.2327 25.5211C16.0623 26.1921 15.7429 26.9785 15.7433 29.1883C15.7435 31.3457 16.0425 32.1582 17.0944 32.8609L17.7601 33.3056H29.7799C36.3909 33.3056 41.7997 33.345 41.7997 33.3932C41.7997 33.4414 41.3571 34.0656 40.816 34.7803C40.2751 35.495 39.6562 36.4254 39.4407 36.8478L39.0488 37.6158L28.5225 37.6189L17.996 37.6222L17.2327 38.0597C16.0623 38.7307 15.7429 39.5171 15.7433 41.7269C15.7435 43.8843 16.0425 44.6967 17.0944 45.3995L17.7601 45.8442H27.5231H37.2862L37.37 46.285C37.4163 46.5276 37.5495 47.2548 37.6661 47.9013C37.7828 48.5479 37.9333 49.3194 38.0005 49.6156L38.1229 50.1544L28.0596 50.1575C18.0065 50.1608 17.9952 50.1612 17.2327 50.5983C16.0623 51.2693 15.7429 52.0557 15.7433 54.2655C15.7435 56.4229 16.0425 57.2353 17.0944 57.9381L17.7601 58.3828H30.9742C43.8754 58.3828 44.2012 58.392 44.7386 58.7748C45.6255 59.4063 48.461 60.6968 49.7343 61.048C50.4547 61.2471 51.9904 61.4091 53.7016 61.4669L56.4934 61.5609V71.5309V81.5008H48.069H39.6446V72.4047C39.6446 64.3968 39.6078 63.2719 39.3368 63.0007C39.069 62.7331 38.1647 62.693 32.3958 62.693C26.6268 62.693 25.7225 62.7331 25.4547 63.0007C25.1837 63.2719 25.1469 64.3968 25.1469 72.4047V81.5008H16.7225H8.29815V63.1967C8.29815 46.8179 8.26582 44.8603 7.99037 44.5847C7.58129 44.1758 7.06114 44.1954 6.66323 44.6352C6.36642 44.9632 6.33899 46.5352 6.33899 63.2253V81.4572L5.64917 81.5866C4.83201 81.7399 3.7388 82.6428 3.41045 83.4355C3.26665 83.7825 3.20062 84.7217 3.23942 85.8686L3.3023 87.7366L2.57272 87.8528C1.72538 87.9878 0.614344 88.8872 0.2711 89.7162C0.119853 90.0814 0.056964 90.9978 0.0998695 92.2151C0.156489 93.8224 0.239165 94.2377 0.604548 94.75C1.56238 96.0926 -0.833274 95.9986 32.3958 95.9986C65.6248 95.9986 63.2291 96.0926 64.187 94.75C64.5425 94.2512 64.6368 93.8122 64.6936 92.389C64.732 91.4273 64.6648 90.3114 64.5443 89.9091C64.2651 88.9776 63.1635 88.0033 62.2188 87.8528L61.4892 87.7366L61.5542 86.0392C61.5899 85.1055 61.5227 84.0191 61.405 83.6251C61.1381 82.7339 60.0549 81.7579 59.1423 81.5866L58.4525 81.4572V71.2198V60.9822L59.677 60.544C60.3505 60.303 61.2662 59.9061 61.7121 59.6621L62.5228 59.2186L69.6467 66.3568C73.6628 70.3809 77.1125 73.6768 77.5543 73.9117C79.7195 75.0634 82.5103 73.9074 83.3067 71.5289C83.917 69.7061 83.4002 68.4875 81.0229 66.1444C79.4374 64.5814 79.2027 64.418 78.7204 64.5391C78.2819 64.649 78.065 64.5594 77.5409 64.0514C76.9802 63.508 76.9256 63.3698 77.1107 62.9637C77.4234 62.2774 76.8072 61.6403 75.963 61.7772C75.4576 61.8593 75.2389 61.7657 74.7443 61.2553C74.3005 60.7975 74.1902 60.5563 74.3266 60.3408C74.4282 60.1797 74.5129 59.9662 74.5146 59.8661C74.5162 59.7658 73.1368 58.2935 71.4493 56.5939L68.3809 53.5039L69.1023 51.9262C70.2813 49.3468 70.6567 47.3831 70.5456 44.3749C70.4363 41.4156 70.1397 40.1691 68.9604 37.7137C67.0812 33.8005 63.705 30.7092 59.7456 29.2758L58.5505 28.8435L58.4976 24.8309L58.4447 20.8184L59.2272 20.6932C60.2159 20.5351 61.3207 19.4811 61.5002 18.5244C61.5705 18.1496 61.5968 17.0968 61.5586 16.1848C61.5043 14.8888 61.4008 14.4078 61.0852 13.9852C60.3206 12.9614 59.7075 12.6538 58.2693 12.5727L56.9232 12.4965L57.2741 11.8809C58.0148 10.5814 58.3422 9.15748 58.3485 7.20714C58.3567 4.64711 58.3065 4.59892 55.6529 4.61969C53.9894 4.63281 53.4177 4.72352 52.2575 5.15845C51.4901 5.44625 50.814 5.68155 50.7546 5.68155C50.6954 5.68155 50.5908 5.42529 50.5218 5.11202C50.1288 3.32194 47.2604 0 46.1079 0C45.718 0 43.7163 2.02949 42.9583 3.19323C42.5514 3.818 42.1616 4.58834 42.092 4.90514C42.0225 5.22193 41.8933 5.5258 41.805 5.58026C41.7168 5.63473 41.0403 5.44488 40.3017 5.15845C39.1595 4.71529 38.6419 4.63497 36.8375 4.62067C34.1995 4.5999 34.158 4.63752 34.1613 7.0414C34.1641 9.06423 34.5257 10.5236 35.4875 12.3917C35.529 12.4724 34.1378 12.5386 32.3958 12.5386C30.6537 12.5386 29.2625 12.4724 29.304 12.3917C30.2658 10.5236 30.6274 9.06423 30.6302 7.0414C30.6335 4.63869 30.5918 4.60107 27.954 4.61636C26.1071 4.62713 25.6617 4.69864 24.5119 5.16786C23.7857 5.46447 23.1092 5.65608 23.0087 5.59397C22.9082 5.53187 22.7691 5.22193 22.6995 4.90514C22.4111 3.59231 19.4269 0 18.6249 0C18.4728 0 18.0048 0.253123 17.5845 0.562473ZM19.2655 3.18363C20.6475 4.64104 21.5845 7.51493 21.3181 9.47917C21.1036 11.0612 20.4859 12.5386 20.039 12.5386C19.6842 12.5386 19.6612 12.3744 19.6612 9.83946C19.6612 6.81805 19.4849 6.2693 18.5138 6.2693C17.5787 6.2693 17.5062 6.51164 17.5062 9.63904V12.5386H17.0409C16.6375 12.5386 16.5172 12.3564 16.1348 11.1672C15.5084 9.21919 15.6283 7.05002 16.4606 5.2715C17.035 4.04389 18.1535 2.5469 18.4961 2.5469C18.5872 2.5469 18.9334 2.83333 19.2655 3.18363ZM47.098 3.27238C48.8924 5.31597 49.5186 8.48706 48.6567 11.1672C48.2743 12.3564 48.154 12.5386 47.7506 12.5386H47.2853V9.63904C47.2853 6.51164 47.2128 6.2693 46.2777 6.2693C45.3066 6.2693 45.1303 6.81805 45.1303 9.83946C45.1303 12.3744 45.1073 12.5386 44.7525 12.5386C44.4761 12.5386 44.2721 12.2629 43.992 11.51C43.156 9.26308 43.2685 7.16267 44.3405 4.99584C44.9006 3.86365 45.9519 2.5469 46.2954 2.5469C46.3865 2.5469 46.7477 2.8733 47.098 3.27238ZM11.1879 6.89015L11.8246 7.08332L11.8293 8.58658C11.8336 9.91156 11.9976 11.0825 12.335 12.1957C12.4247 12.4924 12.2985 12.5384 11.3969 12.5372C10.4421 12.536 10.3194 12.4829 9.92405 11.9005C8.8667 10.3426 8.11027 7.5978 8.52169 6.81237C8.66569 6.5377 8.87336 6.49499 9.62508 6.58531C10.1345 6.64663 10.8378 6.78377 11.1879 6.89015ZM28.4577 6.64487C29.0528 7.02161 28.295 10.1414 27.2103 11.7806C26.732 12.5033 26.6601 12.5386 25.6625 12.5386H24.6165L24.8881 11.51C25.0374 10.9442 25.1602 9.71486 25.1612 8.77799C25.1629 6.85606 25.0903 6.93991 27.001 6.65897C27.5437 6.57923 28.0317 6.50439 28.0856 6.49264C28.1395 6.48088 28.307 6.54926 28.4577 6.64487ZM38.8947 6.87977L39.6141 7.05981L39.6207 8.8687C39.6244 9.8665 39.7545 11.0945 39.9107 11.608L40.194 12.5386H39.1384C38.13 12.5386 38.0605 12.5049 37.5812 11.7806C36.5239 10.1829 35.7375 7.0175 36.3098 6.66387C36.5813 6.49597 37.7513 6.59373 38.8947 6.87977ZM56.2581 7.68694C56.3215 8.89966 55.7779 10.5657 54.8962 11.8603C54.4692 12.4877 54.362 12.536 53.3946 12.5372C52.493 12.5384 52.3668 12.4924 52.4565 12.1957C52.7943 11.0814 52.9579 9.91078 52.9622 8.57914L52.9669 7.06863L53.7016 6.86625C54.506 6.64467 55.4464 6.50694 55.9056 6.54358C56.1223 6.56082 56.215 6.86135 56.2581 7.68694ZM59.2697 14.822C59.755 15.2612 59.793 18.0272 59.3202 18.5001C59.0432 18.7769 56.3313 18.8079 32.3958 18.8079C8.46017 18.8079 5.74831 18.7769 5.47128 18.5001C5.24559 18.2742 5.1635 17.7956 5.1635 16.7032C5.1635 14.2223 1.76613 14.4977 32.3617 14.4977C56.7915 14.4977 58.9401 14.5236 59.2697 14.822ZM46.6976 27.4282C46.985 27.7156 47.0894 28.0812 47.0894 28.7996C47.0894 29.3383 47.0177 29.7792 46.9301 29.7792C46.8426 29.7792 46.186 30.1318 45.4715 30.5628L44.1722 31.3465H31.2955C19.5884 31.3465 18.386 31.3171 18.0604 31.0222C17.7752 30.7642 17.7021 30.4043 17.7021 29.259C17.7021 26.8065 16.1828 27.0363 32.3958 27.0363C46.0446 27.0363 46.3132 27.0438 46.6976 27.4282ZM56.4934 30.4478C61.2657 31.3026 65.2619 34.3432 67.2797 38.6553C68.3196 40.8778 68.6971 42.8495 68.5966 45.5353C68.5257 47.4364 68.4034 48.2093 67.9752 49.4687C67.1915 51.7722 66.0581 53.559 64.2256 55.38C62.8628 56.7342 62.3003 57.1333 60.5823 57.9651C54.6151 60.8545 48.2291 59.7977 43.6609 55.1655C40.7997 52.2642 39.6499 49.5778 39.4959 45.4359C39.4197 43.3835 39.472 42.7033 39.8074 41.3766C41.7041 33.8765 48.9906 29.104 56.4934 30.4478ZM57.4876 38.706C57.1185 38.8661 55.8705 39.9293 54.7144 41.0686L52.6123 43.14L51.6059 42.3444C50.5297 41.4937 49.6426 41.2222 48.5296 41.4028C47.6881 41.5394 46.6061 42.3311 46.2076 43.1018C45.8356 43.8212 45.8281 45.5059 46.1941 46.1969C46.5273 46.8262 50.5277 50.8009 51.1417 51.1126C51.7446 51.4186 53.4737 51.3828 54.1032 51.0511C54.3941 50.8977 56.278 49.1125 58.2897 47.0838C62.227 43.1132 62.3585 42.9092 62.121 41.1389C61.8426 39.0634 59.4995 37.833 57.4876 38.706ZM37.9458 39.7708C37.9991 39.8247 37.9231 40.4419 37.777 41.1422C37.6308 41.8426 37.4582 42.7464 37.3936 43.1504L37.2758 43.8851H27.8472C16.8379 43.8851 17.7021 44.063 17.7021 41.7976C17.7021 39.3608 16.8056 39.5477 28.1759 39.6153C33.4962 39.647 37.8926 39.717 37.9458 39.7708ZM6.63992 40.7426C6.1564 41.2768 6.37837 42.075 7.058 42.2456C7.71883 42.4116 8.18393 42.1191 8.25975 41.49C8.37769 40.5118 7.29937 40.014 6.63992 40.7426ZM59.8729 40.9851C60.0614 41.2032 60.2157 41.5676 60.2157 41.7948C60.2157 42.409 53.208 49.3707 52.5897 49.3707C52.0429 49.3707 48.1193 45.6232 47.9469 44.9363C47.8037 44.3655 48.1771 43.7129 48.7776 43.4846C49.414 43.2425 50.053 43.5773 51.1954 44.751C52.5108 46.1022 52.6769 46.0468 55.321 43.3745C58.4184 40.2444 58.9783 39.9505 59.8729 40.9851ZM38.3183 52.2387C38.9284 52.3394 39.1358 52.5089 39.5747 53.2651C39.8639 53.7631 40.488 54.6775 40.9616 55.2971L41.8226 56.4237H30.1206C19.5067 56.4237 18.3852 56.3935 18.0604 56.0994C17.7752 55.8414 17.7021 55.4815 17.7021 54.3362C17.7021 51.9241 16.8224 52.1131 28.0366 52.1157C33.2897 52.1168 37.9163 52.1721 38.3183 52.2387ZM12.9161 63.0007C12.6483 63.2688 12.6083 64.1796 12.6083 70.0145C12.6083 74.969 12.6696 76.7818 12.8434 76.9556C13.0093 77.1215 14.1496 77.1907 16.7225 77.1907C19.2955 77.1907 20.4357 77.1215 20.6016 76.9556C20.7754 76.7818 20.8367 74.969 20.8367 70.0145C20.8367 64.1796 20.7968 63.2688 20.529 63.0007C20.2719 62.7439 19.6417 62.693 16.7225 62.693C13.8034 62.693 13.1731 62.7439 12.9161 63.0007ZM44.2626 63.0007C43.9947 63.2688 43.9548 64.1796 43.9548 70.0145C43.9548 74.969 44.0161 76.7818 44.1899 76.9556C44.3558 77.1215 45.496 77.1907 48.069 77.1907C50.6419 77.1907 51.7822 77.1215 51.9481 76.9556C52.1219 76.7818 52.1832 74.969 52.1832 70.0145C52.1832 64.1796 52.1432 63.2688 51.8754 63.0007C51.6184 62.7439 50.9881 62.693 48.069 62.693C45.1498 62.693 44.5196 62.7439 44.2626 63.0007ZM18.8776 69.9418V75.2315H16.7225H14.5674V69.9418V64.6521H16.7225H18.8776V69.9418ZM37.6855 73.0765V81.5008H32.3958H27.106V73.0765V64.6521H32.3958H37.6855V73.0765ZM50.2241 69.9418V75.2315H48.069H45.9139V69.9418V64.6521H48.069H50.2241V69.9418ZM59.2697 83.7842C59.755 84.2235 59.793 86.9894 59.3202 87.4623C59.0432 87.7392 56.3313 87.7701 32.3958 87.7701C8.46017 87.7701 5.74831 87.7392 5.47128 87.4623C5.24559 87.2365 5.1635 86.7578 5.1635 85.6654C5.1635 83.1845 1.76613 83.46 32.3617 83.46C56.7915 83.46 58.9401 83.4859 59.2697 83.7842ZM62.4043 90.0535C62.8896 90.4928 62.9276 93.2587 62.4549 93.7316C62.1776 94.0087 59.1811 94.0394 32.3958 94.0394C5.61039 94.0394 2.61386 94.0087 2.33664 93.7316C2.11094 93.5058 2.02885 93.0271 2.02885 91.9347C2.02885 89.4493 -1.82226 89.7293 32.3617 89.7293C59.7083 89.7293 62.0744 89.7548 62.4043 90.0535Z" fill="black"/>
</svg>
