<svg width="98" height="96" viewBox="0 0 98 96" fill="none" xmlns="http://www.w3.org/2000/svg">
<path fill-rule="evenodd" clip-rule="evenodd" d="M42.5471 2.62952C42.2504 4.07576 41.9152 5.37251 41.8021 5.51093C41.6892 5.64953 41.1325 5.9078 40.5652 6.08485C39.9978 6.2619 38.7572 6.77242 37.8079 7.21956L36.0824 8.03223L33.6817 6.46033L31.2812 4.88825L27.1719 8.99214L23.0626 13.0962L23.8428 14.9078C24.2719 15.9041 24.623 16.7852 24.623 16.8659C24.623 16.9465 24.011 17.0643 23.2632 17.1275C20.2314 17.3841 17.5137 18.8739 15.6736 21.2875C13.7876 23.7613 13.2941 25.6979 13.4269 30.1026C13.4854 32.0449 13.6171 33.4069 13.8003 33.9636C14.3984 35.781 15.2927 37.2248 16.678 38.6106C17.4374 39.3701 18.0586 40.1334 18.0586 40.3069C18.0586 40.5533 17.5904 40.7364 15.9131 41.1454L13.7679 41.6687L9.88831 39.4023L6.00874 37.1359H3.49888H0.989014L1.03684 53.2028L1.08485 69.2697L8.58706 71.7745L16.0893 74.2793L17.6754 74.2287C19.195 74.1801 19.2664 74.1583 19.3718 73.7091C19.4326 73.4512 19.565 73.2402 19.6665 73.2402C19.7678 73.2402 20.822 73.8183 22.0092 74.5248C24.1616 75.8054 24.1686 75.8118 24.3861 76.7282C24.828 78.5878 26.4618 80.1785 28.1648 80.4069C28.8509 80.499 28.8991 80.5481 28.9934 81.252C29.2189 82.9321 30.8127 84.5723 32.641 85.0056C33.5126 85.2119 33.6257 85.294 33.6257 85.7202C33.6257 85.985 33.8496 86.6512 34.1234 87.2005C34.7043 88.3664 35.7945 89.2287 37.2252 89.6541C38.1439 89.9272 38.1894 89.973 38.4098 90.8408C38.735 92.1216 39.5537 93.1755 40.7422 93.8435C42.0321 94.5686 43.772 94.641 44.9727 94.0195L45.723 93.6312L46.5668 94.3809C47.7219 95.407 48.6906 95.8646 49.9489 95.9788C52.384 96.1996 54.4913 94.6735 55.0606 92.2769C55.2684 91.4019 55.304 91.3656 56.06 91.2521C57.752 90.9983 59.3321 89.3777 59.7365 87.4813C59.892 86.7521 59.9749 86.6499 60.4143 86.6463C62.1351 86.6322 64.3667 84.394 64.3805 82.6684C64.3837 82.263 64.4921 82.1334 64.9005 82.046C66.0742 81.7948 67.0071 81.3462 67.6455 80.7263C68.5441 79.8536 68.8956 79.131 69.0231 77.894L69.1289 76.8696L83.0742 69.8976L97.0192 62.9258V51.6251V40.3243H95.2217H93.4242L90.8997 41.6567L88.375 42.9891L87.4926 42.6183C87.0072 42.4144 85.1118 41.8807 83.2808 41.432C80.6256 40.7816 79.9517 40.5533 79.9517 40.3041C79.9517 40.1323 80.5729 39.3701 81.3323 38.6106C82.7187 37.2239 83.6149 35.7759 84.2087 33.9636C84.3846 33.4268 84.5251 32.046 84.5825 30.2901C84.6948 26.8622 84.4289 25.361 83.3069 23.0854C81.5649 19.5522 77.7352 17.0675 74.0318 17.0675H73.227L74.0891 15.0836L74.9513 13.0998L70.8403 8.99401L66.7291 4.88825L64.3286 6.46033L61.9279 8.03223L60.2024 7.21956C59.2532 6.77242 58.0125 6.2619 57.4451 6.08485C56.8778 5.9078 56.3211 5.64953 56.2082 5.51093C56.0951 5.37251 55.76 4.07576 55.4632 2.62952L54.9238 0H49.0052H43.0865L42.5471 2.62952ZM52.4774 3.61043C52.5342 3.84263 52.7733 4.95708 53.0089 6.0871L53.4371 8.14176L55.3004 8.66767C56.3757 8.97132 58.2029 9.71516 59.6206 10.4266L62.0774 11.6594L64.0928 10.3311C65.2015 9.60038 66.1649 9.00264 66.234 9.00264C66.303 9.00264 67.4484 10.094 68.7795 11.4281L71.1995 13.8536L70.3711 15.8386L69.5424 17.8239L68.323 18.5518C67.6523 18.9521 66.9427 19.4571 66.7466 19.674C66.5502 19.891 66.284 20.0684 66.1552 20.0684C66.0262 20.0684 65.483 19.4782 64.9481 18.7566C61.3697 13.9295 55.1949 10.8782 49.0052 10.8782C42.7817 10.8782 36.8083 13.8356 33.0442 18.7801L31.923 20.2531L30.9586 19.4907C30.4282 19.0715 29.6696 18.5629 29.2727 18.3605C28.5309 17.982 28.4088 17.7767 27.2456 14.9506L26.799 13.8654L29.2249 11.4339C30.5593 10.0968 31.6987 9.00264 31.7572 9.00264C31.8157 9.00264 32.783 9.60094 33.9064 10.3324L35.9493 11.6622L38.2104 10.5042C39.5276 9.82938 41.3276 9.09436 42.5225 8.74307L44.5736 8.13989L45.0016 6.08616C45.237 4.9567 45.4761 3.84263 45.533 3.61043C45.6354 3.19237 45.6672 3.18844 49.0052 3.18844C52.3431 3.18844 52.375 3.19237 52.4774 3.61043ZM52.1936 14.287C56.7647 15.149 60.8382 17.962 63.5135 22.1043L64.0411 22.9213L63.5095 24.5425C63.0093 26.0686 62.9782 26.3515 62.9823 29.3524C62.9874 33.0091 63.2215 34.199 64.3278 36.1917C64.702 36.8658 65.5854 37.9874 66.2908 38.6843C66.996 39.3813 67.5731 40.1008 67.5731 40.2831C67.5731 40.5558 67.0226 40.7512 64.4785 41.3827L61.3838 42.1509L58.2891 41.3827C55.7121 40.7431 55.1945 40.558 55.1945 40.2756C55.1945 40.089 55.7221 39.4426 56.3667 38.8395C57.7409 37.5534 58.7925 35.8753 59.3736 34.0412C59.7356 32.8988 59.7896 32.314 59.789 29.5399C59.7885 26.9807 59.7204 26.1294 59.4439 25.2262C58.2261 21.2479 55.117 18.2238 51.3284 17.3329C49.6462 16.9373 47.1058 17.0662 45.4936 17.6289C42.3252 18.7347 39.7212 21.3963 38.6709 24.602C38.2633 25.8466 38.2208 26.2954 38.2208 29.3524C38.2208 32.3193 38.2712 32.8874 38.6367 34.0412C39.2178 35.8753 40.2694 37.5534 41.6436 38.8395C42.2884 39.4426 42.8158 40.089 42.8158 40.2756C42.8158 40.558 42.2982 40.7431 39.7212 41.3827L36.6265 42.1509L33.5319 41.3827C31.0723 40.7722 30.4372 40.5503 30.4372 40.3013C30.4372 40.1291 31.0136 39.4096 31.7178 38.7025C32.4221 37.9956 33.3055 36.8658 33.6806 36.1917C34.7885 34.2016 35.0254 33.0048 35.0152 29.4461C35.0072 26.5244 34.9759 26.2615 34.4554 24.74L33.9042 23.1287L34.4683 22.1956C38.1288 16.141 45.228 12.9734 52.1936 14.287ZM27.3366 20.8993C29.5165 21.9696 31.116 24.0025 31.6822 26.4226C32.1038 28.2248 31.9589 32.3592 31.4268 33.7072C30.845 35.1812 29.8213 36.4418 28.4683 37.3508L27.2529 38.1674L27.2977 40.6057L27.3426 43.0439L29.8746 43.6833C31.2671 44.0351 32.442 44.3519 32.4855 44.3873C32.5288 44.423 32.3968 44.6417 32.1918 44.8733C31.1197 46.0858 30.4372 47.9378 30.4372 49.634C30.4372 50.7078 30.3973 50.8302 30.0152 50.9259C29.783 50.984 28.728 51.2265 27.6708 51.4647L25.7483 51.8976V50.2563V48.6148L21.7919 46.3158C19.2777 44.8547 17.9273 43.9687 18.0877 43.8854C18.2264 43.8134 18.9519 43.5992 19.6997 43.4098L21.0595 43.0653V40.5753V38.0851L20.0748 37.4549C18.7876 36.631 17.9496 35.6544 17.2339 34.1438C16.6694 32.9525 16.65 32.8253 16.5891 29.8773C16.5176 26.4237 16.7193 25.3664 17.7598 23.7411C19.318 21.3068 21.4004 20.2357 24.4355 20.3075C25.9762 20.3441 26.3686 20.424 27.3366 20.8993ZM52.2309 20.9638C53.6856 21.6806 55.2108 23.2283 55.877 24.6635C56.5634 26.1424 56.7409 27.4057 56.6664 30.2826C56.6 32.8523 56.5792 32.9682 55.9582 34.2297C55.2521 35.6642 54.0294 37.0059 52.7979 37.6978L51.9957 38.1485L52.0477 40.5963L52.0998 43.0439L56.9217 44.269C62.4594 45.676 63.0161 45.945 63.8689 47.627C64.3772 48.6295 64.3847 48.6947 64.3847 52.1739V55.7038L63.7751 55.7027C63.4398 55.7022 60.929 55.0639 58.1954 54.2846C55.4617 53.5053 52.8032 52.8211 52.2874 52.7643C51.7716 52.7075 49.6616 52.1244 47.5985 51.4687C45.5354 50.8128 43.2988 50.1485 42.6283 49.9922C40.6162 49.5233 37.7269 49.4343 35.6439 49.7767C34.6392 49.942 33.7742 50.0772 33.7215 50.0772C33.4253 50.0772 33.6941 48.5089 34.1414 47.627C34.9942 45.945 35.5509 45.676 41.0887 44.269L45.9105 43.0439L45.9626 40.5963L46.0146 38.1485L45.2124 37.6978C43.9804 37.0055 42.7581 35.664 42.0508 34.2271C41.4218 32.9493 41.4084 32.8718 41.3411 30.1161C41.2473 26.2658 41.6048 24.813 43.1006 22.9674C43.8624 22.0274 44.893 21.3029 46.3166 20.7061C47.2617 20.3101 47.6546 20.2544 49.1978 20.2987C50.7809 20.3439 51.1268 20.4197 52.2309 20.9638ZM76.8108 20.8567C78.8677 21.8181 80.6401 23.9808 81.2553 26.2793C81.4072 26.8478 81.4648 28.1361 81.4226 30.0304C81.3607 32.8122 81.3372 32.9605 80.7699 34.1581C80.0722 35.6306 79.1509 36.701 77.8787 37.5174L76.9509 38.1127L76.9511 40.5783V43.0439L80.6084 43.9702C82.6197 44.4796 84.2655 44.9451 84.2655 45.0046C84.2655 45.0912 68.3218 53.5721 67.7359 53.797C67.6464 53.8315 67.5731 52.642 67.5731 51.1538C67.5731 47.8295 67.1762 46.4088 65.8185 44.8733C65.6135 44.6417 65.4815 44.423 65.5248 44.3873C65.5683 44.3519 66.7432 44.0351 68.1358 43.6833L70.6678 43.0439L70.7199 40.598L70.7719 38.1523L69.612 37.4095C68.2654 36.5473 67.0194 34.9873 66.5097 33.5251C66.2283 32.718 66.1672 31.9667 66.1709 29.3524C66.1751 26.4818 66.218 26.0578 66.6012 25.0997C67.4135 23.0683 68.8839 21.624 71.0738 20.7061C72.0195 20.31 72.4105 20.2546 73.95 20.2998C75.4215 20.3432 75.9195 20.4401 76.8108 20.8567ZM10.857 43.5861L16.3117 46.7541L13.5166 57.9297C11.9794 64.0763 10.7004 69.1264 10.6745 69.1521C10.6488 69.178 9.17692 68.7172 7.40358 68.1284L4.17951 67.0577V53.6798V40.3016L4.79094 40.36C5.16755 40.3958 7.49736 41.635 10.857 43.5861ZM93.8308 52.3753V61.0505L80.8426 67.5436L67.8544 74.037L61.1962 68.0453C57.5342 64.75 54.276 61.854 53.9555 61.6096C53.2137 61.0435 51.2931 60.3927 50.3647 60.3927C48.975 60.3927 47.7574 60.8935 44.7475 62.7034C43.0762 63.7083 41.4086 64.6558 41.0416 64.8093C39.2619 65.5529 37.6056 63.6918 38.3856 61.8249C38.6527 61.1857 38.9713 60.9957 43.853 58.5657L49.037 55.9852L50.5943 55.9199C52.0724 55.858 52.422 55.9317 57.4746 57.3735C61.2465 58.4498 63.0971 58.8915 63.8256 58.8898C64.8157 58.8874 65.3828 58.6078 79.2015 51.3113C87.0929 47.1446 93.6127 43.7275 93.6901 43.718C93.7676 43.7082 93.8308 47.6041 93.8308 52.3753ZM21.084 49.5286C21.9989 50.0521 22.7475 50.5172 22.7475 50.5622C22.7475 50.6729 16.8974 71.1651 16.8496 71.2223C16.8089 71.2707 13.886 70.32 13.7675 70.2199C13.6312 70.1045 19.0883 48.5768 19.2539 48.5768C19.3456 48.5768 20.1693 49.0051 21.084 49.5286ZM42.9096 53.3358C45.9173 54.164 46.047 53.8975 41.5386 56.1544C37.126 58.3632 36.1678 59.0723 35.5008 60.6225C35.1507 61.4365 35.0961 61.8412 35.1632 63.1205C35.2533 64.8376 35.7497 65.937 36.8572 66.8733C37.9721 67.8154 38.9483 68.1275 40.5519 68.0543L41.9936 67.9887L45.1712 66.0905C46.9188 65.0465 48.6188 64.0549 48.9489 63.8867C49.7865 63.4604 50.8711 63.505 51.7744 64.0032C52.89 64.6185 65.4235 75.9397 65.782 76.656C66.0494 77.1903 66.053 77.3321 65.8127 77.907C65.3603 78.9894 64.2438 79.2838 63.1656 78.6051C62.8561 78.4102 60.8305 76.7663 58.6642 74.9519C56.498 73.1375 54.6834 71.6516 54.6318 71.6501C54.409 71.6436 52.739 73.9046 52.8427 74.0722C52.9057 74.1743 54.7055 75.7242 56.8423 77.5169C58.9792 79.3093 60.8496 80.924 60.9993 81.105C61.3782 81.5632 61.3392 82.618 60.9267 83.0739C60.5042 83.5408 59.5707 83.7373 58.9437 83.4914C58.6868 83.3907 56.6006 81.7393 54.3073 79.8215C52.0143 77.904 50.0731 76.3398 49.9936 76.3456C49.8505 76.3561 48.0674 78.473 48.0674 78.6324C48.0674 78.678 49.9568 80.2882 52.266 82.2106C54.5754 84.1331 56.5166 85.8411 56.5798 86.006C56.9841 87.0597 56.2527 88.1884 55.1656 88.1884C54.7955 88.1884 54.2768 88.0743 54.0125 87.9352C53.1261 87.468 50.1427 84.9054 49.6916 84.2238C49.1149 83.3525 47.9048 82.5201 46.81 82.2421C45.9958 82.0354 45.9308 81.9717 45.7312 81.1854C45.2721 79.3776 43.9959 78.0763 42.241 77.6266C41.4791 77.4313 41.2843 77.2969 41.1986 76.9075C40.9861 75.9438 40.8767 75.6646 40.441 74.9742C39.8519 74.0405 38.7048 73.2326 37.5881 72.9647C36.6916 72.7496 36.6779 72.735 36.3844 71.6807C35.8058 69.6024 34.0026 68.2141 31.8495 68.1896C30.1538 68.1703 29.0249 68.8059 26.8911 70.9817L25.1397 72.7676L23.1466 71.5627C22.0501 70.9001 21.0105 70.2469 20.8363 70.1111C20.5441 69.8836 20.6795 69.3008 22.5653 62.6648C23.6907 58.7051 24.6352 55.4437 24.6641 55.4174C24.7211 55.3655 34.4259 53.2079 35.9701 52.9038C37.5435 52.594 40.9964 52.8089 42.9096 53.3358ZM32.861 71.7565C33.3259 72.1475 33.4381 72.3859 33.4381 72.9822C33.4381 73.6568 33.2956 73.87 31.8253 75.3952C30.1319 77.1519 29.3464 77.6075 28.5418 77.2999C27.5526 76.9216 27.1014 75.8054 27.58 74.9204C27.6892 74.7184 28.5347 73.8147 29.4587 72.912C31.3602 71.055 31.8356 70.8935 32.861 71.7565ZM37.5787 76.508C37.9584 76.8878 38.127 77.2425 38.127 77.6622C38.127 78.1774 37.8509 78.548 36.2861 80.1336C34.6028 81.8394 34.3849 81.9991 33.7393 81.9991C32.9424 81.9991 32.2282 81.4598 32.0419 80.7175C31.8563 79.9778 32.4229 79.0869 34.1069 77.47C35.4794 76.1524 35.766 75.9598 36.3551 75.9598C36.8516 75.9598 37.1759 76.1051 37.5787 76.508ZM42.2067 81.0707C42.7669 81.671 42.8987 82.3834 42.5672 83.0197C42.4135 83.3146 41.5729 84.252 40.6993 85.1031C39.2416 86.5229 39.0482 86.6504 38.3541 86.6504C37.7397 86.6504 37.5065 86.542 37.1121 86.0733C36.2254 85.0194 36.4898 84.3908 38.7431 82.196C40.1893 80.7875 40.3983 80.6487 41.0723 80.6487C41.5984 80.6487 41.9267 80.7708 42.2067 81.0707ZM46.9139 85.794C47.2238 86.0986 47.3547 86.4402 47.3547 86.9426C47.3547 87.5996 47.2033 87.8071 45.4893 89.4984C43.9037 91.0632 43.5331 91.3393 43.0178 91.3393C42.2536 91.3393 41.3154 90.4636 41.3154 89.7501C41.3154 88.9954 41.7335 88.3592 43.1302 86.9886C45.1033 85.0521 45.9028 84.7996 46.9139 85.794ZM51.2168 89.8929C51.8522 90.5403 52.006 90.8301 52.006 91.3796C52.006 92.8514 50.1828 93.3503 48.8711 92.2377C48.4806 91.9065 48.1289 91.6139 48.0895 91.5876C48.0501 91.5614 48.4509 91.0658 48.9804 90.4867C49.5099 89.9075 49.9429 89.3559 49.9429 89.261C49.9429 88.8724 50.4737 89.1357 51.2168 89.8929Z" fill="black"/>
</svg>
