<svg width="97" height="97" viewBox="0 0 97 97" fill="none" xmlns="http://www.w3.org/2000/svg">
<path fill-rule="evenodd" clip-rule="evenodd" d="M45.5782 0.477213C43.4427 0.928281 41.3599 2.04761 39.6935 3.63975C38.8776 4.41923 37.9648 5.51736 37.599 6.15955C37.0099 7.19354 36.8256 7.35858 35.5828 7.96438C32.023 9.69945 29.6308 13.3663 29.4112 17.4243C29.115 22.898 32.6005 27.5959 37.98 28.9731C38.8868 29.2053 39.6985 29.2616 41.1684 29.1937C43.0327 29.1076 43.8442 28.9078 45.9064 28.0273C46.2097 27.8979 46.2346 28.0794 46.2346 30.4208V32.9545L45.0624 33.0759C39.5963 33.6415 35.4928 34.788 30.9489 37.0194C29.6079 37.6779 27.8046 38.6909 26.9414 39.2706C26.0783 39.8503 25.3504 40.2991 25.3238 40.2684C24.7148 39.5622 22.2276 36.3384 22.2276 36.2549C22.2276 36.1913 22.6337 35.5321 23.1298 34.7903C24.4419 32.8285 24.9472 31.129 24.9472 28.6775C24.9472 26.2226 24.4417 24.5264 23.1228 22.5542C21.6123 20.2957 19.4929 18.7431 16.9761 18.0511C16.1111 17.8132 15.4365 17.4586 14.6533 16.8297C9.85636 12.9781 2.81744 14.9243 0.676322 20.6941C-0.42481 23.661 0.150795 26.9034 2.23452 29.4735C2.71373 30.0647 3.12278 30.8166 3.25613 31.3519C4.87135 37.8358 12.1723 41.4775 18.289 38.8503L19.133 38.4877L20.775 40.5645L22.4171 42.6415L20.7536 44.3338C17.7143 47.4262 15.453 50.4892 13.7577 53.8098L12.9437 55.404L12.8488 52.6845C12.7678 50.3652 12.6918 49.8387 12.3321 49.1067C11.6473 47.7135 10.6942 46.7529 9.32933 46.0811C8.20701 45.5285 7.90729 45.4638 6.47701 45.4655C5.2369 45.4668 4.68061 45.5585 3.99416 45.8742C2.75536 46.444 1.31963 47.8521 0.708019 49.0975L0.189994 50.1525L0.128663 56.8107C0.0350737 66.9801 0.549911 70.3253 3.00987 75.5318C5.0906 79.9361 6.19567 81.3051 14.0484 89.2092C21.3086 96.5167 21.3609 96.558 22.5744 95.9304C23.2903 95.5602 23.5405 95.1147 23.5405 94.2103C23.5405 93.5434 23.2386 93.2069 16.8354 86.7429C12.5013 82.3672 9.74495 79.4299 9.04031 78.4361C6.7981 75.2732 5.19601 71.5924 4.37114 67.708C4.0373 66.1357 3.97765 65.0179 3.90057 58.9025C3.85199 55.0501 3.86587 51.6132 3.93114 51.2653C4.20441 49.8082 5.76917 48.8507 7.18427 49.2746C7.57532 49.3918 8.14493 49.7481 8.45026 50.0664L9.00505 50.6454L9.11946 58.2762C9.24587 66.7047 9.28995 67.0658 10.5109 69.7088C10.8735 70.4933 11.5211 71.6048 11.9502 72.1785C12.7933 73.3061 23.8367 84.4513 24.6443 84.9894C25.9326 85.8484 27.4792 84.8759 27.4792 83.2071C27.4792 82.6787 26.8398 81.9707 21.6858 76.7922C18.4994 73.5906 15.7986 70.7867 15.6841 70.5614C15.3395 69.884 15.4301 68.2346 15.8498 67.5465C16.5753 66.3566 18.1123 65.7788 19.4792 66.1822C20.1227 66.372 21.0912 67.2381 25.041 71.1552L29.8236 75.8983L31.324 76.0249C34.9688 76.3321 37.7661 77.5973 40.2503 80.0624C42.6019 82.3959 44.1511 84.887 45.2068 88.0321C45.7186 89.5566 46.2318 92.5452 46.2335 94.0121C46.2344 94.7957 46.3229 95.0101 46.8723 95.5594C47.7375 96.4246 48.4828 96.4246 49.348 95.5594C49.879 95.0285 49.9857 94.7843 49.9857 94.101C49.9857 91.44 50.8441 87.8731 52.0694 85.4433C53.2067 83.1878 54.1965 81.8224 55.97 80.0624C58.4541 77.5973 61.2515 76.3321 64.8963 76.0249L66.3967 75.8983L71.1793 71.1552C75.129 67.2381 76.0976 66.372 76.7411 66.1822C78.108 65.7788 79.645 66.3566 80.3704 67.5465C80.7902 68.2346 80.8808 69.884 80.5362 70.5614C80.4216 70.7867 77.7209 73.5906 74.5345 76.7922C69.3805 81.9707 68.7411 82.6787 68.7411 83.2071C68.7411 84.4239 69.5598 85.3189 70.6729 85.3189C71.4188 85.3189 72.3437 84.4886 78.2186 78.545C83.87 72.8276 84.8078 71.7076 85.8266 69.4608C86.9225 67.0442 86.9765 66.5704 87.1008 58.2762L87.2152 50.6454L87.77 50.0664C88.0754 49.7481 88.645 49.3918 89.036 49.2746C90.4545 48.8497 92.0159 49.8083 92.2906 51.2729C92.3567 51.6252 92.3707 55.0619 92.3218 58.9102C92.2417 65.2131 92.192 66.0931 91.8218 67.7826C91.2951 70.1854 90.7021 71.9459 89.6353 74.2729C88.6635 76.393 88.656 76.9338 89.5878 77.7179C90.2369 78.2641 90.8392 78.3159 91.6524 77.8952C92.6577 77.3753 94.6756 72.5388 95.4447 68.8055C96.0389 65.9224 96.1505 63.8787 96.0903 56.9982L96.0303 50.1525L95.5123 49.0975C94.9007 47.8521 93.4649 46.444 92.2261 45.8742C91.5397 45.5585 90.9834 45.4668 89.7433 45.4655C88.313 45.4638 88.0133 45.5285 86.891 46.0811C85.5261 46.7529 84.573 47.7135 83.8882 49.1067C83.5285 49.8387 83.4525 50.3652 83.3715 52.6845L83.2766 55.404L82.4742 53.8505C80.7484 50.5087 78.6297 47.601 75.7438 44.614L73.819 42.6216L75.4531 40.5548L77.0873 38.4877L77.9313 38.8503C84.048 41.4775 91.3489 37.8358 92.9642 31.3519C93.0975 30.8166 93.5066 30.0647 93.9858 29.4735C96.0695 26.9034 96.6451 23.661 95.544 20.6941C93.3833 14.8715 86.3362 12.9612 81.4916 16.885C80.7741 17.4661 80.0947 17.8189 79.2442 18.052C76.7296 18.7414 74.6086 20.295 73.0975 22.5542C71.7786 24.5264 71.2731 26.2226 71.2731 28.6775C71.2731 31.129 71.7784 32.8285 73.0905 34.7903C73.5866 35.5321 73.9927 36.1913 73.9927 36.2549C73.9927 36.3382 71.7152 39.2922 70.9053 40.2596C70.8834 40.2856 70.1555 39.84 69.2877 39.2691C68.4197 38.6982 66.6124 37.6884 65.2714 37.0248C60.7738 34.7999 56.6403 33.6432 51.1579 33.0759L49.9857 32.9545V30.4208C49.9857 28.0794 50.0106 27.8979 50.3139 28.0273C52.3757 28.9076 53.1876 29.1076 55.0497 29.1935C58.4941 29.3522 61.2063 28.309 63.5954 25.906C67.2538 22.2266 67.8878 16.5992 65.1545 12.0623C64.2601 10.5776 62.3001 8.79075 60.6729 7.97658C59.4591 7.36946 59.2402 7.17347 58.6363 6.15242C57.6083 4.41473 55.4019 2.4124 53.5179 1.50745C50.8863 0.243333 48.2836 -0.0942655 45.5782 0.477213ZM49.631 4.11183C52.2116 4.60116 54.6412 6.46264 55.7603 8.80782C56.4548 10.2627 56.7206 10.5213 57.9371 10.9255C64.3962 13.0722 64.8516 22.0308 58.6466 24.8865C57.7176 25.3139 57.3301 25.3775 55.6123 25.3837C53.8784 25.3899 53.5198 25.3329 52.6115 24.9067C52.0441 24.6406 51.3008 24.1869 50.9597 23.8986L50.3392 23.3746L52.3194 21.3651C54.1207 19.5372 54.2994 19.2929 54.2994 18.657C54.2994 17.6493 53.4811 16.8616 52.4342 16.8616C51.7939 16.8616 51.5248 16.991 50.8256 17.6356L49.9857 18.4099V14.9016V11.3936L49.4375 10.8454C48.6655 10.0734 47.5548 10.0734 46.7828 10.8454L46.2346 11.3936V15.8501V20.3066L44.4782 18.5841C42.8252 16.9632 42.675 16.8616 41.9317 16.8616C40.8614 16.8616 40.0453 17.6394 40.0453 18.6597C40.0453 19.3064 40.2289 19.5468 42.3897 21.7307C43.6792 23.034 44.7342 24.1642 44.7342 24.2424C44.7342 24.3206 44.2488 24.6119 43.6557 24.8899C42.6943 25.3402 42.3637 25.3942 40.608 25.3873C38.8887 25.3805 38.5034 25.3171 37.5737 24.888C35.5256 23.9425 33.9278 22.0297 33.3706 19.8563C32.4015 16.0761 34.5501 12.1375 38.2356 10.9384C39.4975 10.5277 39.7582 10.2781 40.46 8.80782C42.09 5.39189 45.9527 3.41413 49.631 4.11183ZM10.5965 18.8474C11.3339 19.0665 11.887 19.4196 12.6849 20.1804C13.6752 21.1251 13.886 21.2376 15.0983 21.4687C16.8332 21.7991 18.0872 22.5015 19.3196 23.8326C20.6786 25.3006 21.1685 26.5842 21.1685 28.6775C21.1685 30.9471 20.6711 32.1439 19.0563 33.7586C17.246 35.569 15.1353 36.2598 12.7554 35.8207C9.60035 35.2387 7.23022 32.7602 6.7469 29.5373C6.63418 28.7854 6.42318 28.423 5.51298 27.4185C3.9167 25.6571 3.53371 24.1747 4.1442 22.1195C4.36514 21.3751 4.69392 20.8668 5.43176 20.1292C6.91401 18.6469 8.55211 18.2403 10.5965 18.8474ZM88.8031 18.8465C90.193 19.2591 91.6635 20.7295 92.0761 22.1195C92.6866 24.1747 92.3036 25.6571 90.7073 27.4185C89.7971 28.423 89.5861 28.7854 89.4734 29.5373C88.9884 32.7716 86.6137 35.2382 83.4161 35.8293C81.0876 36.2598 78.9606 35.5553 77.164 33.7586C75.5492 32.1439 75.0518 30.9471 75.0518 28.6775C75.0518 26.5842 75.5417 25.3006 76.9007 23.8326C78.1359 22.4984 79.3875 21.7991 81.1366 21.4659C82.3621 21.2324 82.5661 21.1245 83.4696 20.2321C85.0336 18.6876 86.7587 18.2394 88.8031 18.8465ZM51.5131 36.9384C56.0341 37.3947 60.9038 38.8917 64.7571 41.0096L65.9663 41.6743L64.6151 42.3002C59.8769 44.4947 57.0589 48.6074 56.7926 53.716C56.7138 55.2268 56.7722 55.9149 57.0929 57.2539C58.0166 61.1119 60.1494 63.768 64.5435 66.5329C65.8967 67.3844 67.2007 68.2907 67.4412 68.5467L67.8786 69.012L66.3132 70.5856L64.7477 72.1592L63.1824 72.3814C58.6244 73.0283 54.5928 75.4016 51.5445 79.2322C50.2818 80.8191 48.2977 84.0471 48.2977 84.5147C48.2977 84.6477 48.2133 84.7563 48.1101 84.7563C48.007 84.7563 47.9226 84.6477 47.9226 84.5147C47.9226 84.046 45.9371 80.8173 44.668 79.2225C41.6296 75.4044 37.9499 73.2048 33.3355 72.448L31.5116 72.1489L29.5734 70.2471L27.6352 68.3453L27.7239 67.1629C27.8601 65.3485 28.6834 63.8543 30.4043 62.2991C33.0835 59.8778 33.9233 58.0889 33.8174 55.0289C33.7605 53.3876 33.6775 52.9941 33.1531 51.8776C32.3721 50.2153 30.7325 48.5566 29.13 47.8079C27.9544 47.2587 26.0787 46.8812 24.4901 46.874L23.6579 46.8703L24.2088 46.2896C24.5117 45.9702 25.3926 45.1962 26.1663 44.5696C33.2558 38.8276 42.539 36.0327 51.5131 36.9384ZM73.0746 47.3889C74.3531 48.7055 75.9699 50.5835 76.667 51.562C78.8257 54.5914 81.4504 60.2917 81.9755 63.0911L82.1063 63.7879L81.3785 63.3136C80.1491 62.5125 78.8477 62.1916 77.2214 62.2888C75.2802 62.4049 74.0915 62.9927 72.149 64.7973L70.6131 66.2242L69.9158 65.6119C69.5324 65.2752 68.1194 64.2885 66.7761 63.4193C63.0768 61.0258 61.6628 59.4569 60.9886 56.9982C60.3081 54.5161 60.4587 52.5403 61.4965 50.3401C63.0023 47.1473 66.2408 45.0411 69.6986 45.0056L70.75 44.9948L73.0746 47.3889ZM26.9885 51.037C28.0188 51.3414 29.5725 52.8951 29.8769 53.9253C30.4982 56.0284 29.9119 57.598 27.8008 59.4833C26.2884 60.8341 25.065 62.5166 24.5462 63.9591L24.2277 64.8448L23.1808 63.9904C21.7471 62.8205 20.7255 62.4066 18.9989 62.2953C17.3719 62.1907 16.0789 62.5075 14.8417 63.3136L14.114 63.7879L14.247 63.0791C14.7221 60.5466 16.9575 55.4843 18.8939 52.5564L20.0494 50.8089H23.133C25.0057 50.8089 26.5196 50.8986 26.9885 51.037ZM43.3766 54.9243C40.4675 55.8541 38.1776 58.3927 37.5 61.4388C37.268 62.4814 37.2082 63.4788 37.2626 65.401C37.3308 67.8136 37.3712 68.0465 37.9241 69.223C39.0123 71.5382 40.9045 73.0293 43.3628 73.5085C45.5587 73.9366 47.9969 73.1681 49.6674 71.5211C50.548 70.6529 52.8834 66.6892 53.4314 65.1327C54.1031 63.2249 53.9813 61.0704 53.0918 59.1275C52.5563 57.9578 51.0253 56.2653 49.9155 55.6163C48.0901 54.5486 45.4319 54.2673 43.3766 54.9243ZM48.0295 58.9653C49.2471 59.6788 49.8591 60.7017 49.9532 62.1798C50.042 63.572 49.948 63.843 48.4367 66.5538C47.1259 68.9051 47.1034 68.9336 46.2078 69.3905C44.8649 70.0757 43.0833 69.7765 42.0735 68.6966C41.2963 67.8653 41.1703 67.2953 41.1748 64.6289C41.1781 62.5493 41.2397 62.0217 41.5606 61.312C42.7583 58.6626 45.695 57.5973 48.0295 58.9653ZM84.4798 81.7151C83.952 82.1866 83.8477 82.4096 83.8477 83.0683C83.8477 83.721 83.9527 83.9505 84.4561 84.4003C85.2887 85.1443 86.2013 85.1426 86.9483 84.3956C88.0774 83.2665 87.4662 81.4664 85.8817 81.2539C85.2137 81.1642 85.0278 81.2254 84.4798 81.7151ZM75.8275 90.3422C72.8649 93.3046 72.6798 93.5316 72.6798 94.1993C72.6798 95.1145 72.9279 95.559 73.6459 95.9304C74.7528 96.5028 75.1609 96.2534 78.3465 93.0554C79.9648 91.4308 81.369 89.8863 81.4669 89.6231C81.8956 88.4697 80.9459 87.1945 79.6579 87.1945C79.0247 87.1945 78.7464 87.4231 75.8275 90.3422Z" fill="black"/>
</svg>
