<svg width="96" height="96" viewBox="0 0 96 96" fill="none" xmlns="http://www.w3.org/2000/svg">
<path fill-rule="evenodd" clip-rule="evenodd" d="M2.2234 2.2234L0 4.44589V48V91.5541L2.2234 93.7766L4.44589 96H48H91.5541L93.7766 93.7766L96 91.5541V57.0566V22.5591L93.7766 20.3366C91.6075 18.1666 91.2154 18.1132 77.4747 18.1132H63.3962V11.28C63.3962 5.232 63.1408 4.19049 61.1728 2.2234L58.9503 0H31.6981H4.44589L2.2234 2.2234ZM58.6868 4.70943C60.2518 6.27442 60.2518 89.7256 58.6868 91.2906C57.9976 91.9798 54.5262 92.3774 49.2027 92.3774H40.8054L40.5537 79.9245L40.3019 67.4717H31.6981H23.0943L22.8426 79.9245L22.5908 92.3774H14.1935C8.87004 92.3774 5.39864 91.9798 4.70943 91.2906C3.14445 89.7256 3.14445 6.27442 4.70943 4.70943C6.26083 3.15804 57.1354 3.15804 58.6868 4.70943ZM11.2637 12.048C10.9992 12.7372 10.9042 16.32 11.0518 20.0097L11.3208 26.717H19.0189H26.717V19.0189V11.3208L19.2308 11.0572C13.5061 10.8562 11.6314 11.0889 11.2637 12.048ZM36.6222 12.048C36.3577 12.7372 36.2626 16.32 36.4103 20.0097L36.6792 26.717H44.3774H52.0755V19.0189V11.3208L44.5893 11.0572C38.8646 10.8562 36.9899 11.0889 36.6222 12.048ZM25.3585 19.0189V25.3585H19.0189H12.6792V19.0189V12.6792H19.0189H25.3585V19.0189ZM50.717 19.0189V25.3585H44.3774H38.0377V19.0189V12.6792H44.3774H50.717V19.0189ZM91.2906 22.8226C92.8492 24.3813 92.8492 89.7319 91.2906 91.2906C90.6014 91.9798 87.13 92.3774 81.8065 92.3774H73.4092L73.1574 79.9245L72.9057 67.4717L68.1509 67.1982L63.3962 66.9238V44.3303V21.7358H76.8C86.0178 21.7358 90.5434 22.0755 91.2906 22.8226ZM11.2637 37.4065C10.9992 38.0957 10.9042 41.6785 11.0518 45.3682L11.3208 52.0755H19.0189H26.717V44.3774V36.6792L19.2308 36.4157C13.5061 36.2146 11.6314 36.4474 11.2637 37.4065ZM36.6222 37.4065C36.3577 38.0957 36.2626 41.6785 36.4103 45.3682L36.6792 52.0755H44.3774H52.0755V44.3774V36.6792L44.5893 36.4157C38.8646 36.2146 36.9899 36.4474 36.6222 37.4065ZM69.226 37.4065C68.9615 38.0957 68.8664 41.6785 69.014 45.3682L69.283 52.0755H76.9811H84.6792V44.3774V36.6792L77.1931 36.4157C71.4684 36.2146 69.5937 36.4474 69.226 37.4065ZM25.3585 44.3774V50.717H19.0189H12.6792V44.3774V38.0377H19.0189H25.3585V44.3774ZM50.717 44.3774V50.717H44.3774H38.0377V44.3774V38.0377H44.3774H50.717V44.3774ZM83.3208 44.3774V50.717H76.9811H70.6415V44.3774V38.0377H76.9811H83.3208V44.3774Z" fill="black"/>
</svg>
