<svg width="96" height="96" viewBox="0 0 96 96" fill="none" xmlns="http://www.w3.org/2000/svg">
<path fill-rule="evenodd" clip-rule="evenodd" d="M2.81207 0.246337C1.9064 0.533356 0.45443 2.02638 0.204156 2.92811C0.0779881 3.38236 0.00168724 6.05926 0.00112483 10.0513C0 16.2386 0.012748 16.463 0.388628 16.9408C0.925921 17.624 1.88615 17.624 2.42344 16.9408C2.79932 16.4632 2.81207 16.2373 2.81207 10.0897V3.73237L3.27231 3.27231L3.73237 2.81207H26.9874H50.2423L50.2434 9.70164C50.244 13.9803 50.3197 16.8627 50.4433 17.3075C50.6975 18.2226 51.8088 19.458 52.7732 19.8971C53.4558 20.2079 54.1586 20.239 60.6001 20.2428L67.6771 20.2469V24.5788C67.6771 28.6274 67.6558 28.9025 67.3491 28.7847C66.4694 28.4469 64.2226 27.8969 62.7091 27.6488C61.3106 27.4196 58.1131 27.3721 44.0226 27.3716L27.0231 27.3708L26.6346 27.8648C26.1502 28.4806 26.1401 29.0732 26.6042 29.6465L26.9625 30.0891L37.047 30.1829L47.1316 30.2766L45.9108 30.9903C45.2395 31.3829 44.0417 32.2477 43.2489 32.9119L41.8078 34.1198H34.6738C28.7791 34.1198 27.4475 34.1674 27.0094 34.394C26.126 34.8509 25.9702 35.8576 26.6798 36.5243C27.1068 36.9253 27.21 36.9318 33.1704 36.9318H39.2272L38.9267 37.3537C37.1891 39.793 35.6197 43.0839 34.9484 45.6961L34.5991 47.0553H30.8827C27.1869 47.0553 27.1638 47.0579 26.7062 47.5155C26.1438 48.0778 26.1191 48.7182 26.6346 49.3734L27.0231 49.8674H30.5715H34.1198V51.9296V53.9917H30.5715H27.0231L26.6346 54.4857C26.1502 55.1014 26.1401 55.694 26.6041 56.2675C26.9537 56.6999 27.0487 56.7121 30.7472 56.8038L34.5324 56.8975L34.9507 58.491C35.6897 61.3071 37.046 64.2147 38.6671 66.4586L39.2089 67.2085L33.1584 67.258C27.2506 67.3063 27.098 67.317 26.677 67.7124C25.9702 68.3766 26.1275 69.3841 27.0094 69.84C27.4475 70.0666 28.7793 70.1143 34.6745 70.1143H41.8091L43.1668 71.2586C43.9135 71.8879 45.1555 72.7737 45.9265 73.227L47.3286 74.0512H37.2475H27.1663L26.7062 74.5114C26.1438 75.0736 26.1191 75.714 26.6346 76.3692L27.0231 76.8632H43.8683C54.5845 76.8632 61.2471 76.7916 62.1801 76.6662C63.4407 76.4969 66.5169 75.7686 67.3957 75.4313C67.6434 75.3363 67.6771 76.3394 67.6771 83.788V92.2529L67.2169 92.713L66.7568 93.1732H35.2446H3.73237L3.27231 92.713L2.81207 92.2529V56.7393C2.81207 22.3201 2.8012 21.2124 2.46131 20.7926C1.97389 20.1907 0.838184 20.1907 0.350759 20.7926C0.0108734 21.2124 0 22.3205 0 56.756C0 84.2052 0.052117 92.4616 0.22909 93.0578C0.530544 94.0723 1.91296 95.4548 2.92755 95.7562C3.95883 96.0624 66.4503 96.0895 67.5498 95.7843C67.9437 95.6749 68.6031 95.281 69.0149 94.909C70.4609 93.6025 70.3846 94.1918 70.4892 83.5314L70.5829 73.9835L71.5057 73.4415L72.4282 72.8995L74.1035 74.5748C75.5965 76.0676 75.7562 76.2922 75.5712 76.6381C75.0159 77.6757 75.1244 77.8248 80.0034 82.7206C82.5554 85.2814 85.0651 87.6674 85.5806 88.0225C88.9272 90.3278 93.667 89.0296 95.388 85.3362C95.8098 84.4313 95.8861 84.0104 95.8886 82.5772C95.8934 79.7726 95.6482 79.411 89.7526 73.5356C85.5118 69.3095 84.7363 68.6149 84.2603 68.6173C83.9553 68.619 83.5794 68.7009 83.4247 68.7993C83.2071 68.9379 82.7566 68.5935 81.433 67.2771L79.7225 65.5756L80.4518 64.3298C81.9596 61.7542 83.2603 57.6251 83.531 54.5541C83.6399 53.3195 83.6098 53.0921 83.2828 52.6888C83.0112 52.3536 82.7262 52.2295 82.2277 52.2295C81.1989 52.2295 80.9666 52.5977 80.6809 54.6818C79.979 59.8015 77.8883 64.0736 74.3554 67.6065C66 75.9617 52.6001 76.1915 43.8919 68.1289C39.7512 64.2953 37.2858 58.9453 36.9883 53.1481C36.3514 40.7403 46.4035 30.1784 58.8437 30.1836C67.2317 30.1872 74.9253 34.9707 78.5492 42.4356C79.4037 44.1954 80.4252 47.2195 80.4252 47.9883C80.4252 48.1691 80.6001 48.5393 80.8138 48.811C81.3106 49.4427 82.304 49.4883 82.8865 48.9058C83.2369 48.5554 83.2712 48.3695 83.1685 47.3849C83.0288 46.0495 81.9951 42.87 81.1612 41.2116C79.0739 37.0599 75.7982 33.4529 71.9192 31.0353L70.4892 30.1441V24.2134V18.2828L61.3479 9.14129L52.2064 0L27.8374 0.0191221C10.5582 0.03262 3.27737 0.0987974 2.81207 0.246337ZM59.4284 11.1545L65.7066 17.4348H59.8407H53.9747L53.5146 16.9746L53.0544 16.5145V10.6943C53.0544 7.49323 53.0759 4.87425 53.1024 4.87425C53.1286 4.87425 55.9754 7.70038 59.4284 11.1545ZM11.717 26.1526C10.7946 26.4786 10.0237 27.3059 9.76107 28.2514C9.65215 28.6436 9.56629 30.4407 9.57022 32.2451C9.5796 36.519 9.84356 37.3049 11.5295 38.079C12.1704 38.3733 12.7835 38.4237 15.7476 38.4264C17.6551 38.4281 19.5148 38.3465 19.8802 38.2449C20.634 38.0355 21.6267 37.0953 21.9227 36.3104C22.1863 35.6109 22.1855 28.6887 21.9216 27.9923C21.6374 27.2418 21.0208 26.6258 20.1532 26.2254C19.5085 25.9278 18.9168 25.8798 15.9351 25.8834C13.4333 25.8864 12.2578 25.9614 11.717 26.1526ZM19.3095 32.0347C19.3095 34.4994 19.2522 35.2463 19.0503 35.4139C18.8725 35.5614 17.8263 35.6128 15.7227 35.5774L12.6543 35.5258L12.6031 32.1982L12.552 28.8706H15.9307H19.3095V32.0347ZM55.7768 34.0484C48.6106 35.3417 43.0226 40.4801 41.1222 47.524C40.6955 49.1049 40.6143 49.7952 40.6035 51.9296C40.5903 54.508 40.9497 56.8032 41.5498 57.9729C42.0365 58.9213 43.5426 58.8705 44.0128 57.8894C44.2145 57.4688 44.1947 57.1606 43.8863 55.9255C43.3657 53.8397 43.2543 52.2616 43.492 50.3308C44.2787 43.9399 48.8172 38.7603 55.0991 37.0841C57.1293 36.5423 60.647 36.547 62.7091 37.0942C71.2037 39.348 76.1747 48.0189 73.7565 56.3636C70.9478 66.0559 60.0246 70.5042 51.1797 65.5576C50.2131 65.0171 49.1658 64.1709 47.8288 62.8498C46.1721 61.2129 45.7946 60.9282 45.2801 60.9282C44.3145 60.9282 43.6345 62.0048 44.0709 62.8426C44.8368 64.313 47.6762 66.8749 49.948 68.1454C52.4149 69.525 56.053 70.4892 58.7918 70.4892C66.8015 70.4892 73.9556 65.2567 76.3561 57.6429C78.0469 52.2801 77.1988 46.4679 74.0422 41.7838C73.0261 40.276 70.7378 37.9772 69.2706 36.9903C65.2372 34.2776 60.3778 33.218 55.7768 34.0484ZM62.9979 44.5392C62.6409 44.6941 61.2017 45.9577 59.7994 47.347L57.2498 49.8734L56.8076 49.4026C55.6778 48.2002 53.7377 47.7191 52.045 48.2217C50.9511 48.5466 49.6345 49.9084 49.3166 51.0441C49.0331 52.0567 49.1407 53.5073 49.5588 54.3097C49.7093 54.5988 51.0053 55.9883 52.4387 57.3975C54.819 59.7374 55.1389 59.9869 56.1278 60.2743C57.3375 60.626 58.1448 60.551 59.3559 59.9743C59.8705 59.7295 61.5369 58.145 64.3632 55.2139C68.3391 51.0906 68.6186 50.7547 68.9109 49.7494C69.7299 46.9316 67.6546 44.2365 64.6776 44.2524C64.1105 44.2554 63.3546 44.3846 62.9979 44.5392ZM11.1545 46.1922C9.79256 47.0219 9.66415 47.4387 9.58897 51.2734C9.51042 55.2755 9.67896 56.2999 10.552 57.1259C11.5713 58.0904 11.7108 58.1163 15.8758 58.1131C19.5666 58.1101 19.8182 58.0872 20.514 57.6913C20.9728 57.4301 21.4141 56.9613 21.6857 56.4463C22.0995 55.6619 22.1214 55.4334 22.1175 51.947C22.1128 47.8011 21.9525 47.12 20.7844 46.2869C20.17 45.8487 20.0429 45.8354 16.0288 45.7861C11.9459 45.7361 11.8969 45.74 11.1545 46.1922ZM65.6834 47.4439C66.0621 47.7416 66.1774 47.9985 66.1774 48.5442C66.1774 49.2183 65.9627 49.4761 62.1286 53.4049C57.0601 58.5985 57.6581 58.4481 54.4094 55.3455C51.7282 52.7846 51.5031 52.3272 52.4556 51.3746C53.3176 50.5126 53.8198 50.6103 55.1797 51.9044C56.5515 53.21 57.0147 53.4777 57.6339 53.3223C57.8928 53.2572 59.4203 51.8504 61.0995 50.1306C64.3636 46.7874 64.6416 46.6245 65.6834 47.4439ZM19.2158 51.9296V55.2103L15.8882 55.2615L12.5606 55.3127V51.9296V48.5464L15.8882 48.5976L19.2158 48.6488V51.9296ZM11.5295 66.1551C9.84356 66.9291 9.5796 67.715 9.57022 71.989C9.56216 75.6863 9.71289 76.4902 10.5758 77.3531C11.4781 78.2554 12.3231 78.3999 16.2892 78.3304C20.1963 78.262 20.5566 78.1648 21.5026 76.9255L22.0279 76.2373L22.0896 72.5808C22.1233 70.5696 22.0974 68.6385 22.032 68.2894C21.8717 67.4351 20.754 66.2317 19.9005 65.9946C19.5238 65.8902 17.6551 65.806 15.7476 65.8077C12.7835 65.8103 12.1704 65.8607 11.5295 66.1551ZM79.5831 69.5534L81.0755 71.0546L79.4381 72.6922L77.8006 74.3296L76.2808 72.8097L74.7609 71.2899L76.3276 69.6829C77.1892 68.7992 77.9386 68.0706 77.9924 68.0641C78.0464 68.0575 78.7621 68.7277 79.5831 69.5534ZM19.2158 71.989V75.2697L15.8882 75.3209L12.5606 75.3721V72.1183C12.5606 70.3287 12.6187 68.8063 12.6897 68.7352C12.761 68.6642 14.2583 68.6289 16.0174 68.657L19.2158 68.7082V71.989Z" fill="black"/>
</svg>
