<svg width="85" height="96" viewBox="0 0 85 96" fill="none" xmlns="http://www.w3.org/2000/svg">
<path fill-rule="evenodd" clip-rule="evenodd" d="M12.3066 0.388687L11.8125 0.777187V29.5449V58.3125H6.36656H0.920438L0.460313 58.7728L0 59.2329V66.24V73.2471L0.421875 73.6269C0.653812 73.8358 0.99675 74.0608 1.18369 74.127C1.59431 74.2723 2.53444 73.8191 2.69606 73.3978C2.76 73.2309 2.8125 70.4012 2.8125 67.1096V61.125H27.7095H52.6067L52.9207 61.6567C54.3956 64.1537 57.6347 66.6673 60.6081 67.6228L61.6849 67.9688L61.6862 80.5781L61.6875 93.1875H32.25H2.8125V86.0501C2.8125 81.3778 2.74387 78.7845 2.61356 78.5411C2.18625 77.7426 0.856312 77.7324 0.255562 78.5229C0.0646873 78.7744 0.0106874 80.5988 0.00599992 86.9616L0 95.0796L0.460313 95.5397L0.920438 96H42.06H83.1994L83.6934 95.6113L84.1875 95.2228V59.5176C84.1875 24.0624 84.1849 23.8099 83.8125 23.4375C83.2913 22.9163 82.4034 22.9545 81.8353 23.5228L81.375 23.9829V58.5872V93.1914L72.9844 93.1425L64.5938 93.0938L64.5456 80.7967L64.4974 68.4999L66.4719 68.2843C70.2757 67.869 72.9193 66.6122 75.5814 63.954C77.3899 62.1482 78.4442 60.4483 79.2553 58.0312C79.7072 56.6848 79.7595 56.2528 79.7664 53.8125C79.7751 50.7444 79.5351 49.5656 78.4489 47.3438C76.9834 44.3458 74.6974 42.0487 71.7188 40.5816C69.2201 39.3508 68.0576 39.0934 65.0625 39.1073C62.7004 39.1181 62.4075 39.1609 60.6784 39.7476C55.7979 41.4036 52.269 45.1943 51.0043 50.1394C50.5459 51.9321 50.4977 55.0423 50.9025 56.7188C51.0519 57.3375 51.1772 57.9493 51.1807 58.0781C51.1862 58.2641 47.4097 58.3125 32.9062 58.3125H14.625V30.5625V2.8125H48H81.375V10.4895V18.1665L81.7969 18.6362C82.4062 19.3144 83.2031 19.3594 83.8125 18.75C84.1768 18.3857 84.1875 18.1251 84.1875 9.57619V0.777187L83.6934 0.388687L83.1994 0H48H12.8006L12.3066 0.388687ZM27.5886 8.07675C25.8281 8.42288 24.2561 9.90206 23.7058 11.7304C23.2982 13.0853 23.3134 29.8886 23.7236 31.2701C24.1119 32.5779 25.0125 33.6891 26.25 34.3871L27.2812 34.9688H48H68.7188L69.75 34.3871C70.3172 34.0671 71.0548 33.4498 71.3889 33.0152C72.5574 31.4962 72.582 31.2364 72.5224 21.0692C72.4704 12.1839 72.4568 11.8802 72.0707 11.0458C71.5628 9.94762 70.4899 8.87475 69.3917 8.36681C68.5384 7.97194 68.4133 7.96875 54.1459 7.96875H39.7605L39.3489 8.38013C38.8099 8.91938 38.8099 9.83062 39.3489 10.3699L39.7603 10.7812L53.9666 10.875C67.0866 10.9616 68.2114 10.9939 68.6738 11.2969C69.6713 11.9507 69.6562 11.7958 69.6562 21.477C69.6562 31.3929 69.6966 31.035 68.49 31.8255C68.0158 32.1362 66.7779 32.1562 48 32.1562C29.2221 32.1562 27.9842 32.1362 27.51 31.8255C26.3184 31.0447 26.3496 31.2851 26.2853 22.3211C26.253 17.8305 26.2809 13.707 26.3473 13.1578C26.4343 12.4374 26.616 11.9934 26.9994 11.5641L27.5308 10.9688L30.7811 10.875C32.9168 10.8133 34.1751 10.6989 34.4509 10.5414C35.3078 10.0519 35.229 8.63025 34.3191 8.15963C33.8957 7.94063 33.1496 7.87969 31.0875 7.89563C29.6128 7.90688 28.0384 7.98844 27.5886 8.07675ZM29.8221 14.2046C29.2112 14.6993 29.2431 15.6958 29.8873 16.2501C30.3216 16.6236 30.5998 16.6875 31.7917 16.6875H33.1875V22.4792C33.1875 27.8284 33.2139 28.3035 33.5332 28.698C34.0337 29.316 34.9914 29.2766 35.5609 28.6146L36 28.104V22.3958V16.6875H37.4147C38.6668 16.6875 38.8824 16.6346 39.2897 16.2272C39.8803 15.6367 39.8914 14.8232 39.3161 14.2826C38.8963 13.8885 38.7396 13.875 34.5555 13.875C30.7071 13.875 30.1841 13.9114 29.8221 14.2046ZM44.5312 14.2239C43.7814 14.6871 43.3858 15.1539 43.0384 15.9851C42.8002 16.5551 42.75 17.6715 42.75 22.3898V28.104L43.1891 28.6146C43.7113 29.2217 44.6141 29.3003 45.1802 28.7878C45.5145 28.4854 45.558 28.1687 45.6045 25.7098L45.6562 22.9688H48H50.3438L50.3955 25.7098C50.442 28.1687 50.4855 28.4854 50.8198 28.7878C51.3859 29.3003 52.2887 29.2217 52.8109 28.6146L53.25 28.104V22.3898C53.25 16.269 53.1947 15.8488 52.2566 14.8442C51.4431 13.9727 51.0097 13.875 47.9625 13.8757C45.4976 13.8763 45.0146 13.9253 44.5312 14.2239ZM56.6576 14.3089C56.4334 14.5476 56.25 14.9484 56.2502 15.1995C56.2504 15.4508 57.0412 16.9734 58.0076 18.5831L59.7651 21.51L58.0074 24.3941C55.9447 27.7791 55.8081 28.4409 57.0617 28.968C58.11 29.4088 58.5263 29.0769 60.0139 26.6147C60.7554 25.3875 61.4235 24.4215 61.4987 24.4678C61.5737 24.5143 62.1146 25.3554 62.7004 26.3372C64.1303 28.7332 64.4858 29.1249 65.2307 29.1249C65.9889 29.1249 66.6249 28.5174 66.6249 27.7929C66.6249 27.4416 66.024 26.2676 64.9063 24.4363C63.9609 22.8874 63.1875 21.5698 63.1875 21.5085C63.1875 21.447 63.9388 20.1474 64.8572 18.6202C65.7754 17.0932 66.5449 15.7172 66.5668 15.5625C66.7103 14.5566 66.141 13.875 65.1574 13.875C64.4048 13.875 64.1081 14.2211 62.5312 16.9395C62.0156 17.8284 61.5364 18.5573 61.4661 18.5591C61.3959 18.561 60.8182 17.6978 60.1822 16.6406C59.5464 15.5835 58.851 14.5288 58.6367 14.2969C58.1145 13.7314 57.1952 13.7368 56.6576 14.3089ZM50.3237 16.9841C50.3863 17.1473 50.4375 17.9066 50.4375 18.6716V20.0625H48H45.5625V18.6716C45.5625 16.5864 45.4384 16.6875 48 16.6875C49.8422 16.6875 50.2288 16.7368 50.3237 16.9841ZM24.0214 40.0781C23.8041 40.2587 23.5742 40.6749 23.5108 41.0033C23.4178 41.4848 23.4887 41.6933 23.8768 42.0814L24.3579 42.5625H36.981C50.7024 42.5625 50.247 42.5972 50.5144 41.5318C50.6424 41.0216 50.3758 40.3624 49.8913 39.9904C49.6644 39.8162 46.6052 39.7605 37.0052 39.756C25.2864 39.7504 24.3892 39.7727 24.0214 40.0781ZM68.1292 42.2974C71.0799 43.0592 74.1742 45.4389 75.3684 47.8643C75.9144 48.9735 75.9579 49.2058 75.9607 51.0229C75.9647 53.4746 75.5957 55.1203 74.5791 57.1875C73.9511 58.4646 73.4586 59.1214 72.1007 60.4929C70.6414 61.9674 70.1591 62.3233 68.625 63.0598C65.9512 64.3434 63.2194 64.7809 60.7736 64.317C58.2306 63.8347 55.1259 60.5893 54.0938 57.3337C52.0213 50.7982 55.7031 44.0796 62.3438 42.2788C63.6538 41.9237 66.7194 41.9334 68.1292 42.2974ZM59.9944 45.7969C58.6806 46.4606 58.3125 47.1789 58.3125 49.0804C58.3125 50.9683 58.7038 51.8544 59.8132 52.4779C61.2538 53.2875 62.9044 52.8465 63.8861 51.3896C64.2486 50.8521 64.3125 50.5121 64.3125 49.125C64.3125 47.7439 64.2474 47.3949 63.8891 46.8559C63.4228 46.1541 62.0672 45.375 61.3125 45.375C61.0468 45.375 60.4538 45.5647 59.9944 45.7969ZM68.0805 45.6122C67.7556 45.7791 66.5901 47.8356 63.9109 52.9688C61.8654 56.8875 60.1911 60.2874 60.1897 60.5241C60.1841 61.6093 61.9719 62.3252 62.6944 61.527C62.8674 61.3356 64.6204 58.1083 66.5895 54.3551C70.4753 46.9491 70.5992 46.6072 69.6833 45.8194C69.1037 45.321 68.739 45.2737 68.0805 45.6122ZM23.8978 46.5853C23.6447 46.8384 23.4375 47.2641 23.4375 47.5312C23.4375 47.7984 23.6447 48.2241 23.8978 48.4772L24.3579 48.9375H33.24H42.1221L42.5299 48.5036C43.0714 47.9271 43.0598 47.0552 42.5036 46.5326C42.0707 46.1259 42.0482 46.125 33.2137 46.125H24.3579L23.8978 46.5853ZM23.8114 53.0126C23.3273 53.6282 23.4184 54.4837 24.0214 54.9844C24.3853 55.2866 25.1096 55.3125 33.183 55.3125C41.7679 55.3125 41.9597 55.3044 42.4434 54.9238C43.0626 54.4369 43.1209 53.4334 42.5625 52.875C42.198 52.5105 41.9376 52.5 33.2012 52.5H24.2147L23.8114 53.0126ZM68.1907 54.6405C66.6491 55.2036 66.1125 56.1259 66.1016 58.2324C66.0947 59.5648 66.1536 59.8363 66.5927 60.5001C67.8454 62.3931 70.4486 62.3376 71.7611 60.3896C72.3416 59.5283 72.3729 57.1613 71.8183 56.0739C71.1585 54.7806 69.5488 54.1446 68.1907 54.6405ZM11.238 64.8581C10.8431 65.2532 10.6875 65.5903 10.6875 66.0516C10.6875 67.3059 9.18094 68.8125 7.92656 68.8125C7.46606 68.8125 7.12819 68.9679 6.73556 69.3606L6.1875 69.9086V77.25V84.5914L6.73556 85.1394C7.12819 85.5321 7.46606 85.6875 7.92656 85.6875C9.18094 85.6875 10.6875 87.1941 10.6875 88.4484C10.6875 88.9097 10.8431 89.2468 11.238 89.6419L11.7885 90.1924L32.4422 90.1431L53.0957 90.0938L53.4285 89.6828C53.6115 89.4566 53.8155 88.8636 53.8817 88.365C54.0932 86.7694 55.0453 85.9369 57.0414 85.602C58.3356 85.3851 58.3125 85.5369 58.3125 77.229C58.3125 68.7619 58.3674 69.0679 56.8106 68.8686C55.1104 68.6509 54.0938 67.674 53.8298 66.0036C53.5517 64.2439 55.7469 64.4126 32.4189 64.3569L11.7885 64.3076L11.238 64.8581ZM51.3474 68.0447C51.6547 69.0701 53.0685 70.5712 54.2901 71.1688L55.3125 71.6691V77.25V82.8309L54.2901 83.3312C53.0685 83.9288 51.6547 85.4299 51.3474 86.4553L51.1281 87.1875H32.3361H13.5441L13.0494 86.1765C12.4691 84.9904 11.1864 83.7416 10.0174 83.2245L9.1875 82.8574V77.2464V71.6355L10.1182 71.235C11.2239 70.7593 12.6232 69.3341 13.1471 68.1501L13.5176 67.3125H32.3229H51.1281L51.3474 68.0447ZM30.2411 70.3971C29.0499 70.7692 27.9126 71.5003 27.0227 72.4659C26.2757 73.2763 25.3185 74.985 25.3144 75.5156C25.3132 75.6641 25.0348 75.75 24.5541 75.75C22.4113 75.75 22.2619 78.4549 24.3911 78.6949C25.2255 78.789 25.2416 78.8042 25.6658 79.8979C26.2588 81.4271 27.6366 82.8908 29.2138 83.6674C30.3579 84.2306 30.6083 84.2812 32.2461 84.2812C33.8526 84.2812 34.1533 84.2233 35.25 83.7024C35.9274 83.3809 36.8509 82.7355 37.329 82.2493C38.1651 81.3994 39.1875 79.6356 39.1875 79.0431C39.1875 78.8278 39.3801 78.75 39.9122 78.75C40.9671 78.75 41.625 78.1738 41.625 77.25C41.625 76.3442 40.9646 75.75 39.9579 75.75C39.3219 75.75 39.2634 75.6994 39.0362 74.9531C38.4461 73.0144 36.6345 71.202 34.5795 70.4951C33.3345 70.0667 31.4353 70.0237 30.2411 70.3971ZM34.0856 73.4827C36.7944 74.8762 37.2591 78.4014 34.9959 80.3886C33.1271 82.0294 30.1449 81.5944 28.7436 79.4766C28.1169 78.5299 27.9341 76.7563 28.3586 75.7432C28.7646 74.7742 29.6087 73.8647 30.4611 73.4775C31.4811 73.014 33.1791 73.0166 34.0856 73.4827ZM13.8066 76.1387C13.143 76.6605 13.1276 77.6445 13.7728 78.2897C14.2208 78.7378 14.3079 78.75 17.0683 78.75H19.9039L20.4519 78.2019C21.0484 77.6055 21.1097 77.3209 20.7919 76.6232C20.4559 75.8858 19.8637 75.75 16.9852 75.75C14.5532 75.75 14.2541 75.7866 13.8066 76.1387ZM44.1816 76.1387C43.4837 76.6875 43.4837 77.8125 44.1816 78.3613C44.6312 78.7151 44.9267 78.75 47.4773 78.75H50.2789L50.8269 78.2019C51.1284 77.9004 51.375 77.4722 51.375 77.25C51.375 77.0278 51.1284 76.5996 50.8269 76.2981L50.2789 75.75H47.4773C44.9267 75.75 44.6312 75.7849 44.1816 76.1387Z" fill="black"/>
</svg>
