<svg width="95" height="97" viewBox="0 0 95 97" fill="none" xmlns="http://www.w3.org/2000/svg">
<path fill-rule="evenodd" clip-rule="evenodd" d="M19.3175 0.540837C18.6984 0.753584 17.7697 1.25337 17.2538 1.65128C16.7379 2.0492 12.9304 5.77771 8.79268 9.93678C2.38214 16.3803 1.18914 17.6651 0.725566 18.6243L0.181505 19.75L0.132727 55.0124C0.0786962 93.9657 -0.00216265 91.2679 1.27469 93.129C2.1315 94.3781 3.50497 95.384 4.96549 95.8322C6.16655 96.2009 6.67047 96.2058 38.5472 96.1564L70.9095 96.1061L72.0768 95.567C73.3621 94.9732 74.8447 93.5601 75.462 92.3403C75.9576 91.3608 76.2563 89.8847 76.2563 88.4139C76.2563 87.0128 76.0182 86.3794 75.3826 86.0898C74.7462 85.7999 74.4888 85.8273 73.98 86.2393C73.5872 86.5573 73.5258 86.8023 73.4266 88.4437C73.2983 90.5697 72.918 91.5165 71.8331 92.4108C71.4579 92.72 70.8012 93.0688 70.3737 93.1857C69.8048 93.3412 61.0316 93.3841 37.6882 93.3451L5.78027 93.292L4.86531 92.7264C4.19912 92.3144 3.80777 91.8876 3.42599 91.1571L2.90181 90.1537V55.4783V20.8028L9.89019 20.7454C16.1407 20.694 16.9577 20.6523 17.629 20.3501C18.4997 19.9582 19.4493 19.0913 20.0334 18.1553C20.4315 17.5174 20.4457 17.293 20.5369 10.2758L20.6307 3.0529L45.1846 3.00525C62.5461 2.97167 69.9651 3.018 70.5116 3.1634C71.5888 3.45025 72.9353 4.86387 73.2242 6.01184C73.3759 6.61406 73.4422 9.84766 73.4422 16.6437C73.4422 26.1599 73.4517 26.4196 73.8174 26.7852C74.4271 27.395 75.2244 27.3499 75.8342 26.6713L76.2563 26.2014V16.4655C76.2563 6.38161 76.1974 5.45765 75.462 4.00463C74.8447 2.78481 73.3621 1.37175 72.0768 0.777973L70.9095 0.238789L45.6763 0.19639C20.6245 0.154366 20.435 0.156805 19.3175 0.540837ZM17.5125 16.7088C17.0725 17.7718 17.0206 17.7801 10.7875 17.7801H5.06136L11.3453 11.4941L17.629 5.20794L17.6791 10.6968C17.7138 14.5236 17.6635 16.3439 17.5125 16.7088ZM30.6578 10.324C30.3069 10.5604 29.828 11.0386 29.5935 11.3868C29.1914 11.9834 29.1668 12.2027 29.1668 15.1999C29.1668 18.8462 29.3105 19.3734 30.5236 20.1762C31.1283 20.5764 31.5382 20.6777 32.8289 20.7454C34.6333 20.8401 35.2189 20.7332 35.7378 20.2143C36.2139 19.7381 36.2092 19.0845 35.7252 18.4692C35.3723 18.0208 35.2121 17.9778 33.7084 17.9279L32.0748 17.8739L32.0226 15.2943L31.9704 12.7147H46.7081H61.4458L61.3937 15.2943L61.3415 17.8739L51.0334 17.9225C40.7531 17.9709 40.7242 17.972 40.2929 18.3772C39.5845 19.0429 39.7413 20.0507 40.6244 20.5073C41.0709 20.7383 42.7592 20.7818 51.2672 20.7818C58.3058 20.7818 61.5732 20.7171 62.0171 20.569C62.7866 20.3122 63.7705 19.4216 64.062 18.7179C64.201 18.3819 64.2541 17.0957 64.2151 15.0035C64.1502 11.5097 64.0873 11.2947 62.8639 10.3812C62.352 9.99869 62.1692 9.99381 46.8207 9.94428L31.2954 9.89419L30.6578 10.324ZM73.8555 31.1398C72.5437 31.3345 71.9417 31.667 70.5391 32.9718C69.1685 34.2467 68.6212 34.4162 66.9461 34.0832C64.7359 33.6438 62.4426 34.5227 61.2406 36.2699C60.5303 37.3021 60.3399 37.8182 60.135 39.2647C59.9147 40.819 59.5958 41.2539 58.0955 42.0446C55.754 43.2791 54.616 44.9756 54.6083 47.2438C54.6049 48.2779 54.7145 48.7049 55.2994 49.9367C56.1403 51.7072 56.1641 52.364 55.4388 53.7615C53.6704 57.1682 54.7045 60.2972 58.1694 62.0241C59.5547 62.7145 59.9057 63.2113 60.1586 64.8387C60.4005 66.3961 60.8819 67.4401 61.7749 68.3449C62.4761 69.0556 64.0706 69.9297 64.6715 69.933C64.9781 69.9347 64.9998 70.3827 64.9998 76.6963C64.9998 83.0721 65.021 83.4993 65.3726 84.1882C65.8064 85.0382 66.3172 85.4407 67.301 85.7067C68.3398 85.9873 68.9638 85.7448 71.9511 83.8989C73.415 82.9944 74.7081 82.2553 74.8246 82.2562C74.9413 82.2571 76.1713 82.9618 77.5579 83.8224C80.6217 85.7238 81.2435 85.9665 82.3199 85.6808C83.1955 85.4485 83.8307 84.9397 84.2943 84.0993C84.5637 83.6107 84.6123 82.6431 84.6622 76.7717L84.7196 70.0071L85.5295 69.7905C86.5328 69.5222 87.8078 68.5688 88.4793 67.5844C88.9858 66.8422 89.1706 66.2828 89.5687 64.2881C89.8143 63.057 90.2803 62.5509 91.8618 61.7976C93.0156 61.2479 93.8366 60.4352 94.4958 59.1891C94.8339 58.5503 94.9157 58.0864 94.9191 56.7913C94.9228 55.3235 94.8684 55.0819 94.2857 53.9772C93.4531 52.3987 93.4524 51.6385 94.2816 50.0485C94.8577 48.9437 94.9178 48.6792 94.9204 47.2344C94.9228 45.8264 94.8602 45.5261 94.385 44.6685C93.6874 43.41 93.1029 42.8656 91.6264 42.0998C90.2295 41.3751 89.6454 40.6385 89.477 39.3881C89.1625 37.0543 88.1108 35.448 86.3334 34.5873C85.025 33.9535 84.02 33.8229 82.5646 34.0976C80.9001 34.4115 80.3604 34.246 79.1286 33.0434C77.4215 31.3767 75.9175 30.8338 73.8555 31.1398ZM77.154 35.0803C78.9809 36.8646 80.6969 37.407 82.9824 36.9218C83.9818 36.7098 84.1637 36.7232 84.9384 37.0659C86.0293 37.5484 86.373 38.0895 86.6681 39.7885C87.081 42.1664 88.0718 43.4909 90.2503 44.5766C91.5483 45.2236 92.0297 45.8283 92.159 46.974C92.2327 47.6282 92.1198 48.0312 91.5275 49.23C90.8962 50.5076 90.8064 50.8552 90.8064 52.0184C90.8064 53.1739 90.8974 53.5315 91.5046 54.7605C92.3057 56.3818 92.3689 57.1125 91.7967 58.1307C91.4915 58.6736 91.0874 59.0042 90.1711 59.4597C88.065 60.5069 86.9201 62.0824 86.6557 64.2962C86.5071 65.5417 85.9939 66.4606 85.2243 66.8585C84.577 67.1932 84.0407 67.2214 82.0547 67.0246C80.0777 66.8287 79.0342 67.1934 77.5084 68.6136C76.1156 69.9098 75.7398 70.1225 74.843 70.1225C73.9035 70.1225 73.0332 69.673 72.3664 68.8432C72.0589 68.4607 71.3522 67.8969 70.7956 67.5906C69.7431 67.0109 68.9923 66.9422 65.7964 67.1339C64.1678 67.2315 63.2142 66.2711 62.9272 64.2435C62.7253 62.8188 62.103 61.4554 61.312 60.7052C61.0186 60.427 60.1922 59.8782 59.4754 59.4857C57.292 58.2907 56.9224 57.0712 58.0623 54.8237C58.6561 53.6527 58.715 53.3921 58.715 51.9332C58.715 50.4879 58.6578 50.2283 58.1342 49.2981C57.3963 47.9873 57.2734 47.4687 57.5036 46.635C57.7847 45.6174 58.3345 45.0495 59.6438 44.4246C61.5664 43.5072 62.6095 42.0362 62.9268 39.795C63.1133 38.4784 63.4453 37.8631 64.3222 37.2091C64.7379 36.8988 65.0516 36.8359 65.9052 36.8911C69.7024 37.1363 70.7078 36.8798 72.2704 35.2671C73.4846 34.0141 73.7375 33.8937 74.9965 33.9685C76.028 34.0299 76.1353 34.085 77.154 35.0803ZM10.9826 34.7839C10.4763 35.4274 10.4918 35.8386 11.0464 36.4834L11.4991 37.0098L29.4788 37.0646C39.3676 37.0946 47.7377 37.0689 48.0788 37.0072C49.323 36.7823 49.8657 35.4773 49.0532 34.6647C48.6831 34.2946 48.4279 34.2895 30.0248 34.2895H11.3713L10.9826 34.7839ZM72.4103 40.4269C66.8498 41.7681 63.0564 46.4302 63.0549 51.9246C63.0536 56.5426 65.5079 60.5217 69.5962 62.5302C71.386 63.4096 72.8323 63.7439 74.8455 63.7439C81.1699 63.7439 86.2434 58.8961 86.5278 52.5812C86.6889 49.0056 85.635 46.2878 83.0995 43.7397C81.8821 42.5165 81.2688 42.0653 79.9979 41.4584C79.1267 41.0424 77.9663 40.61 77.4196 40.4974C76.4416 40.2963 73.1446 40.2498 72.4103 40.4269ZM77.0939 43.3947C80.4499 44.2687 83.0255 47.1545 83.6127 50.6982C84.0519 53.3476 83.1379 56.1079 81.129 58.2001C76.808 62.6998 69.4454 61.4417 66.738 55.7411C66.1285 54.4577 66.0364 54.0738 65.9694 52.5413C65.9274 51.5822 65.9889 50.4196 66.1062 49.9538C67.3301 45.0927 72.2768 42.1399 77.0939 43.3947ZM11.4044 44.2682C10.5022 44.7044 10.4515 46.1938 11.3228 46.6602C11.5777 46.7965 17.501 46.8592 30.1537 46.8592H48.6125L49.0206 46.4251C49.5977 45.8107 49.5594 44.9257 48.9341 44.434C48.4414 44.0464 48.379 44.0451 30.1265 44.0579C17.708 44.0665 11.6816 44.134 11.4044 44.2682ZM11.2198 54.2654C11.0021 54.4177 10.7706 54.7562 10.705 55.0173C10.5678 55.5638 10.9883 56.5101 11.4464 56.6859C11.6134 56.7499 20.0052 56.8024 30.0949 56.8024C48.37 56.8024 48.4416 56.8009 48.9341 56.4135C49.5802 55.9053 49.608 54.9729 48.9943 54.3962L48.56 53.9883H30.0876C14.101 53.9883 11.562 54.0256 11.2198 54.2654ZM10.9826 64.4258C10.4763 65.0693 10.4918 65.4806 11.0464 66.1254L11.4993 66.6518H30.1053H48.7112L49.0697 66.2088C49.5348 65.6348 49.5273 64.7808 49.0532 64.3067C48.6831 63.9365 48.4279 63.9315 30.0248 63.9315H11.3713L10.9826 64.4258ZM69.0629 69.9462C69.3505 70.0555 70.0549 70.5925 70.6283 71.1394C71.8777 72.331 72.5857 72.7209 73.8842 72.9323C75.7779 73.2404 77.5091 72.6455 78.9248 71.2C79.4124 70.7022 80.1062 70.1719 80.4666 70.0212C81.7809 69.4719 81.6969 69.0421 81.6969 76.3136C81.6969 79.925 81.6429 82.8798 81.577 82.8798C81.511 82.8798 80.196 82.1089 78.6548 81.1668C75.4796 79.2254 74.7665 79.0149 73.5202 79.6507C73.114 79.8578 71.7475 80.6692 70.4836 81.4536C69.2195 82.238 68.1017 82.8798 67.9997 82.8798C67.8807 82.8798 67.814 80.5212 67.814 76.3136C67.814 69.946 67.825 69.7473 68.177 69.7473C68.3766 69.7473 68.7753 69.8368 69.0629 69.9462ZM11.2869 78.5857C10.4209 79.0894 10.5265 80.5542 11.4595 80.9794C11.7852 81.1278 14.7038 81.1914 21.1918 81.1914H30.4591L30.929 80.7692C31.6076 80.1595 31.6526 79.3622 31.0429 78.7525C30.6775 78.387 30.4216 78.3774 21.1466 78.3829C14.8455 78.3868 11.5109 78.4553 11.2869 78.5857Z" fill="black"/>
</svg>
