<svg width="101" height="97" viewBox="0 0 101 97" fill="none" xmlns="http://www.w3.org/2000/svg">
<path fill-rule="evenodd" clip-rule="evenodd" d="M41.6694 4.18159C36.7488 6.65032 33.3822 8.45229 33.2586 8.68287C33.1195 8.94296 33.0528 15.0532 33.0528 27.5301V45.9924L31.1783 46.9236C29.8866 47.5652 29.2791 47.7779 29.2254 47.6075C29.1823 47.4713 28.9134 46.6153 28.6275 45.7052C27.6568 42.6136 26.3376 40.4748 24.9718 39.7779C22.5127 38.5235 20.2232 40.6117 18.5973 45.5928C17.8916 47.7549 17.2799 51.1176 17.3506 52.4474L17.4118 53.6001L8.97345 57.6772C4.33228 59.9197 0.414734 61.919 0.267571 62.1202C0.0605969 62.4032 0 63.4974 0 66.9517C0 70.9211 0.0381682 71.4618 0.3443 71.8175C0.744869 72.283 49.8248 96.0539 50.3853 96.0539C50.9541 96.0539 99.9921 72.2915 100.388 71.824C100.694 71.4628 100.732 70.918 100.732 66.9359C100.732 62.9529 100.694 62.4095 100.388 62.0506C100.199 61.8287 96.2811 59.8329 91.6823 57.6158L83.3207 53.5847L83.3819 52.4397C83.4537 51.0983 82.8516 47.8223 82.1247 45.5982C80.813 41.5842 79.0462 39.3919 77.1233 39.3919C76.2539 39.3919 75.0996 40.0433 74.3972 40.93C73.5982 41.9389 72.4908 44.2658 71.9926 45.9828C71.7728 46.7403 71.556 47.4713 71.511 47.6075C71.4541 47.7787 70.8519 47.5681 69.5542 46.9236L67.6796 45.9924V27.5301C67.6796 15.0528 67.6129 8.94296 67.4738 8.68287C67.2238 8.2158 50.9655 0.0383735 50.318 0.0539162C50.0741 0.0598185 46.1821 1.91727 41.6694 4.18159ZM56.3661 6.38668C59.6669 8.03618 62.3675 9.43128 62.3675 9.48696C62.3675 9.54264 59.6672 10.9375 56.3669 12.5866L50.3662 15.5852L44.3656 12.5866C41.0652 10.9375 38.3649 9.54264 38.3649 9.48696C38.3649 9.41161 50.0465 3.46111 50.3162 3.39914C50.3428 3.39284 53.0651 4.73738 56.3661 6.38668ZM48.7923 43.3279V68.3143L42.4965 65.1652L36.2007 62.0162V37.0298V12.0434L42.4965 15.1925L48.7923 18.3416V43.3279ZM64.5317 37.0304V62.0162L58.2359 65.1652L51.9402 68.3143V43.3279V18.3416L58.1868 15.2037C61.6223 13.4779 64.4556 12.0611 64.4825 12.0552C64.5095 12.0493 64.5317 23.2883 64.5317 37.0304ZM38.2577 18.6267C37.7473 19.1368 37.6381 19.8821 37.9801 20.5209C38.2354 20.998 45.0589 24.4394 45.7496 24.4394C46.8113 24.4394 47.5455 23.0575 47.0129 22.0622C46.7576 21.5851 39.9341 18.1437 39.2434 18.1437C38.9667 18.1437 38.5233 18.3611 38.2577 18.6267ZM57.4084 19.9214C55.4926 20.8878 53.8324 21.8513 53.7195 22.0624C53.1869 23.0575 53.9212 24.4394 54.9828 24.4394C55.6736 24.4394 62.497 20.998 62.7524 20.5209C63.3005 19.4967 62.5456 18.1332 61.4419 18.1541C61.1395 18.1598 59.3243 18.9552 57.4084 19.9214ZM38.2577 24.9224C37.7473 25.4326 37.6381 26.1778 37.9801 26.8167C38.2354 27.2938 45.0589 30.7352 45.7496 30.7352C46.8113 30.7352 47.5455 29.3533 47.0129 28.358C46.7576 27.8809 39.9341 24.4394 39.2434 24.4394C38.9667 24.4394 38.5233 24.6568 38.2577 24.9224ZM57.4084 26.2172C55.4926 27.1836 53.8324 28.1471 53.7195 28.3582C53.1869 29.3533 53.9212 30.7352 54.9828 30.7352C55.6736 30.7352 62.497 27.2938 62.7524 26.8167C63.3005 25.7924 62.5456 24.429 61.4419 24.4499C61.1395 24.4556 59.3243 25.251 57.4084 26.2172ZM38.2577 31.2182C37.7473 31.7284 37.6381 32.4736 37.9801 33.1124C38.2354 33.5896 45.0589 37.031 45.7496 37.031C46.8113 37.031 47.5455 35.6491 47.0129 34.6537C46.7576 34.1766 39.9341 30.7352 39.2434 30.7352C38.9667 30.7352 38.5233 30.9526 38.2577 31.2182ZM57.4084 32.513C55.4926 33.4794 53.8324 34.4428 53.7195 34.6539C53.1869 35.6491 53.9212 37.031 54.9828 37.031C55.6736 37.031 62.497 33.5896 62.7524 33.1124C63.3005 32.0882 62.5456 30.7248 61.4419 30.7456C61.1395 30.7513 59.3243 31.5468 57.4084 32.513ZM38.2577 37.514C37.7473 38.0241 37.6381 38.7694 37.9801 39.4082C38.2354 39.8853 45.0589 43.3268 45.7496 43.3268C46.8113 43.3268 47.5455 41.9448 47.0129 40.9495C46.7576 40.4724 39.9341 37.031 39.2434 37.031C38.9667 37.031 38.5233 37.2484 38.2577 37.514ZM57.4084 38.8088C55.4926 39.7752 53.8324 40.7386 53.7195 40.9497C53.1869 41.9448 53.9212 43.3268 54.9828 43.3268C55.6736 43.3268 62.497 39.8853 62.7524 39.4082C63.3005 38.384 62.5456 37.0206 61.4419 37.0414C61.1395 37.0471 59.3243 37.8425 57.4084 38.8088ZM24.4406 43.832C24.9856 44.8181 25.9667 47.6209 26.3301 49.2291C26.7641 51.1495 26.8056 52.2733 26.4726 53.0707C26.135 53.8787 25.6289 54.5411 25.3494 54.5411C25.2579 54.5411 25.1831 53.8289 25.1831 52.9583C25.1831 51.54 25.1329 51.3251 24.7001 50.8925C24.3957 50.588 23.9924 50.4095 23.6092 50.4095C23.2259 50.4095 22.8226 50.588 22.5182 50.8925C22.0846 51.3259 22.0352 51.539 22.0352 52.9746C22.0352 54.7487 21.8678 54.8913 21.1054 53.7661C20.4477 52.7952 20.3708 51.9561 20.757 49.9582C21.4308 46.4711 23.0176 42.578 23.6786 42.7895C23.8028 42.8292 24.1457 43.2984 24.4406 43.832ZM77.9547 43.832C78.4997 44.8181 79.4808 47.6209 79.8442 49.2291C80.2782 51.1495 80.3198 52.2733 79.9867 53.0707C79.6491 53.8787 79.143 54.5411 78.8635 54.5411C78.772 54.5411 78.6972 53.8289 78.6972 52.9583C78.6972 51.54 78.647 51.3251 78.2142 50.8925C77.9099 50.588 77.5065 50.4095 77.1233 50.4095C76.74 50.4095 76.3367 50.588 76.0323 50.8925C75.5987 51.3259 75.5493 51.539 75.5493 52.9746C75.5493 54.7487 75.3819 54.8913 74.6195 53.7661C73.9618 52.7952 73.8849 51.9561 74.2711 49.9582C74.9449 46.4711 76.5317 42.578 77.1927 42.7895C77.3169 42.8292 77.6598 43.2984 77.9547 43.832ZM38.2577 43.8098C37.7473 44.3199 37.6381 45.0652 37.9801 45.704C38.2354 46.1811 45.0589 49.6225 45.7496 49.6225C46.8113 49.6225 47.5455 48.2406 47.0129 47.2453C46.7576 46.7682 39.9341 43.3268 39.2434 43.3268C38.9667 43.3268 38.5233 43.5442 38.2577 43.8098ZM57.4084 45.1045C55.4926 46.0709 53.8324 47.0344 53.7195 47.2455C53.1869 48.2406 53.9212 49.6225 54.9828 49.6225C55.6736 49.6225 62.497 46.1811 62.7524 45.704C63.3005 44.6798 62.5456 43.3163 61.4419 43.3372C61.1395 43.3429 59.3243 44.1383 57.4084 45.1045ZM33.3997 64.0442C33.9476 64.6533 49.6841 72.4447 50.3662 72.4447C51.0218 72.4447 66.4828 64.8223 67.2369 64.1274L67.6796 63.7194V56.6711C67.6796 52.7944 67.7225 49.6225 67.7746 49.6225C67.827 49.6225 68.5352 49.9519 69.3486 50.3542L70.8275 51.0861V52.1176C70.8275 54.4313 72.5368 56.9854 74.617 57.7799L75.5493 58.136V60.8725C75.5493 63.5157 75.5659 63.6257 76.0323 64.092C76.3367 64.3966 76.74 64.575 77.1233 64.575C77.5065 64.575 77.9099 64.3966 78.2142 64.092C78.6809 63.6255 78.6972 63.5165 78.6972 60.8611V58.113L79.3945 57.8828C79.7779 57.7563 80.4644 57.3683 80.9196 57.0209L81.7475 56.3889L88.4856 59.6403C92.1914 61.4287 95.2236 62.9407 95.2236 63.0001C95.2236 63.0597 85.1307 67.9913 72.7949 73.9593L50.3662 84.81L27.9375 73.9593C15.6017 67.9913 5.50881 63.0615 5.50881 63.0042C5.50881 62.9468 8.54121 61.4352 12.2473 59.6452L18.9857 56.3909L19.8132 57.0218C20.2683 57.3689 20.9545 57.7563 21.338 57.8828L22.0352 58.113V60.8611C22.0352 63.5165 22.0516 63.6255 22.5182 64.092C22.8226 64.3966 23.2259 64.575 23.6092 64.575C23.9924 64.575 24.3957 64.3966 24.7001 64.092C25.1666 63.6257 25.1831 63.5157 25.1831 60.8725V58.136L26.1155 57.7799C28.2002 56.9837 29.9049 54.4317 29.9049 52.1072V51.0653L31.4297 50.3446L32.9545 49.6237L33.0062 56.6439C33.0528 62.9887 33.0908 63.7009 33.3997 64.0442ZM38.2577 50.1055C37.7473 50.6157 37.6381 51.361 37.9801 51.9998C38.2354 52.4769 45.0589 55.9183 45.7496 55.9183C46.8113 55.9183 47.5455 54.5364 47.0129 53.5411C46.7576 53.064 39.9341 49.6225 39.2434 49.6225C38.9667 49.6225 38.5233 49.8399 38.2577 50.1055ZM57.4084 51.4003C55.4926 52.3667 53.8324 53.3302 53.7195 53.5413C53.1869 54.5364 53.9212 55.9183 54.9828 55.9183C55.6736 55.9183 62.497 52.4769 62.7524 51.9998C63.3005 50.9755 62.5456 49.6121 61.4419 49.633C61.1395 49.6387 59.3243 50.4341 57.4084 51.4003ZM38.2577 56.4013C37.7473 56.9115 37.6381 57.6567 37.9801 58.2956C38.2354 58.7727 45.0589 62.2141 45.7496 62.2141C46.8113 62.2141 47.5455 60.8322 47.0129 59.8368C46.7576 59.3597 39.9341 55.9183 39.2434 55.9183C38.9667 55.9183 38.5233 56.1357 38.2577 56.4013ZM57.4084 57.6961C55.4926 58.6625 53.8324 59.6259 53.7195 59.837C53.1869 60.8322 53.9212 62.2141 54.9828 62.2141C55.6736 62.2141 62.497 58.7727 62.7524 58.2956C63.3005 57.2713 62.5456 55.9079 61.4419 55.9287C61.1395 55.9344 59.3243 56.7299 57.4084 57.6961Z" fill="black"/>
</svg>
